<svg width="953" height="761" viewBox="0 0 953 761" fill="none" xmlns="http://www.w3.org/2000/svg">
<path d="M601.231 396.063C586.996 394.635 572.814 395.922 558.762 394.542C556.278 394.313 553.835 393.943 551.439 393.484C583.449 391.87 614.08 380.401 637.939 358.292C641.991 354.516 645.814 350.51 649.038 345.995C649.455 345.443 651.481 342.266 652.22 341.391C652.496 341.573 652.814 341.896 652.955 342.036C654.106 343.094 655.257 344.151 656.408 345.167C656.731 345.443 657.054 345.719 657.377 345.995C657.512 346.135 657.653 346.224 657.793 346.365C658.481 346.964 659.22 347.609 659.908 348.208C660.184 348.438 660.418 348.62 660.694 348.849C661.017 349.125 661.293 349.359 661.616 349.635C662.257 350.188 662.949 350.693 663.595 351.245C663.731 351.339 663.824 351.432 663.965 351.521C664.423 351.891 664.84 352.214 665.298 352.536C666.267 353.271 667.231 354.01 668.246 354.745C668.429 354.885 668.616 355.021 668.798 355.161C669.814 355.854 670.824 356.542 671.84 357.234C672.252 357.51 672.668 357.786 673.127 358.063C673.96 358.615 674.835 359.12 675.71 359.63C676.168 359.906 676.627 360.182 677.137 360.458C679.809 361.979 682.663 363.406 685.705 364.74C686.897 365.25 688.054 365.755 689.252 366.214C689.663 366.354 690.033 366.49 690.444 366.677C694.132 368.01 697.861 369.115 701.824 369.99C702.699 370.177 707.486 371.146 708.226 371.74C708.043 373.307 701.595 380.078 700.627 381.094C687.085 395.74 672.392 406.24 654.611 414.948C648.439 411.125 642.267 407.854 635.913 405.135C635.455 404.953 635.038 404.766 634.574 404.583C633.059 403.938 631.491 403.339 629.97 402.786C629.418 402.557 628.819 402.37 628.22 402.141C626.887 401.682 625.548 401.266 624.215 400.849C623.293 400.573 622.371 400.297 621.449 400.021C620.163 399.656 618.824 399.333 617.491 399.01C616.752 398.823 616.017 398.641 615.278 398.458C614.955 398.365 614.632 398.318 614.309 398.271C612.975 397.995 611.684 397.719 610.35 397.49C609.934 397.396 609.522 397.349 609.106 397.26C608.783 397.214 608.507 397.167 608.184 397.12C608.002 397.073 607.814 397.073 607.632 397.026C605.559 396.568 603.397 396.292 601.231 396.063ZM516.663 156.922C546.559 167.193 560.746 200.266 597.913 188.797C608.6 185.479 618.225 178.156 624.627 168.99C630.064 161.208 633.84 150.932 631.309 141.448C629.923 136.198 626.793 132.005 622.418 128.828C618.502 125.927 613.345 124.406 608.554 124.036C595.382 122.979 584.048 129.75 586.72 144.349C589.116 157.339 595.012 153.24 603.074 147.755C603.392 147.573 603.673 147.391 603.996 147.25C604.179 147.156 604.408 147.068 604.59 147.021C604.778 146.974 604.96 146.88 605.1 146.88C605.283 146.833 605.465 146.792 605.699 146.792C605.882 146.792 606.064 146.745 606.205 146.745C606.387 146.745 606.574 146.745 606.757 146.745C606.939 146.745 607.08 146.792 607.262 146.833C607.449 146.88 607.632 146.927 607.772 146.974C607.955 147.021 608.095 147.068 608.231 147.156C608.371 147.203 608.554 147.297 608.694 147.391C608.83 147.479 608.97 147.573 609.153 147.667C609.288 147.755 609.429 147.849 609.569 147.943C609.705 148.031 609.845 148.172 609.981 148.307C610.121 148.401 610.21 148.542 610.35 148.677C610.486 148.818 610.58 148.953 610.673 149.094C610.762 149.229 610.856 149.37 610.949 149.505C611.043 149.646 611.132 149.828 611.225 150.016C611.319 150.151 611.361 150.292 611.455 150.427C611.548 150.615 611.595 150.797 611.637 150.979C611.684 151.12 611.731 151.255 611.778 151.443C611.824 151.625 611.871 151.813 611.871 151.995C611.871 152.13 611.918 152.318 611.918 152.453C611.918 152.641 611.918 152.87 611.918 153.052C611.918 153.193 611.918 153.328 611.871 153.516C611.824 153.698 611.778 153.927 611.731 154.115C611.684 154.25 611.684 154.391 611.637 154.526C611.548 154.714 611.455 154.943 611.361 155.125C611.319 155.266 611.272 155.401 611.179 155.495C611.043 155.724 610.856 155.911 610.673 156.141C610.58 156.229 610.533 156.323 610.444 156.417C610.168 156.693 609.845 156.969 609.429 157.245C603.397 161.344 596.627 165.073 590.361 164.474C590.132 164.474 589.897 164.432 589.668 164.385C589.163 164.292 588.705 164.198 588.241 164.063C588.147 164.016 588.059 164.016 587.965 164.016C587.413 163.833 586.814 163.599 586.262 163.37C586.074 163.276 585.939 163.188 585.757 163.094C585.387 162.911 584.97 162.682 584.6 162.401C584.418 162.266 584.189 162.125 584.002 161.99C583.637 161.714 583.314 161.438 582.944 161.115C582.762 160.927 582.574 160.792 582.392 160.609C582.022 160.24 581.653 159.87 581.335 159.458C581.194 159.271 581.012 159.089 580.871 158.901C580.366 158.26 579.861 157.615 579.397 156.828C574.47 149.094 573.502 138.635 576.866 130.115C581.241 119.063 591.418 113.766 602.84 112.891C603.903 112.797 604.913 112.75 605.929 112.75C606.252 112.75 606.621 112.75 606.939 112.75C607.632 112.75 608.324 112.75 609.012 112.797C609.429 112.844 609.798 112.844 610.21 112.891C610.809 112.938 611.455 112.984 612.054 113.073C612.47 113.12 612.882 113.214 613.298 113.26C613.897 113.349 614.496 113.443 615.048 113.583C615.465 113.672 615.877 113.766 616.293 113.859C616.845 113.995 617.444 114.135 617.996 114.318C618.408 114.458 618.824 114.594 619.241 114.688C619.793 114.87 620.345 115.057 620.85 115.286C621.267 115.422 621.679 115.609 622.095 115.792C622.6 116.021 623.106 116.25 623.663 116.484C624.074 116.667 624.491 116.896 624.861 117.083C625.642 117.495 626.377 117.911 627.116 118.37C627.163 116.99 627.298 115.698 627.439 114.365C627.439 114.318 627.439 114.271 627.439 114.271C627.486 113.948 627.528 113.583 627.574 113.26C627.762 112.245 627.944 111.188 628.173 110.219C628.22 110.078 628.22 109.943 628.267 109.802C628.314 109.667 628.361 109.479 628.361 109.344C628.684 108.193 629.002 107.089 629.418 105.979C629.418 105.938 629.465 105.891 629.465 105.844C629.559 105.656 629.6 105.427 629.694 105.245C629.741 105.151 629.788 105.063 629.835 104.969C630.199 104 630.616 103.078 631.074 102.156C631.215 101.88 631.309 101.651 631.444 101.375C631.491 101.281 631.538 101.24 631.585 101.146C632.09 100.177 632.595 99.2552 633.147 98.3333C633.288 98.151 633.382 97.9688 633.517 97.7813C633.564 97.6927 633.658 97.599 633.699 97.5052C634.298 96.5833 634.944 95.6615 635.59 94.7448L635.637 94.6979C635.819 94.4219 636.048 94.1927 636.236 93.9115C636.882 93.0833 637.569 92.3021 638.262 91.5208C638.309 91.474 638.356 91.4271 638.403 91.3802C638.585 91.1979 638.72 91.0104 638.908 90.8281C639.689 89.9531 640.564 89.125 641.439 88.2969C641.668 88.1094 641.856 87.8802 642.085 87.6979C642.085 87.6979 642.132 87.6979 642.132 87.651L642.179 87.6042C643.007 86.8646 643.835 86.1302 644.71 85.3906C644.939 85.2083 645.168 85.026 645.403 84.8385C645.449 84.7917 645.491 84.75 645.538 84.7031C646.46 83.9635 647.429 83.2292 648.439 82.5365C648.673 82.3542 648.903 82.2135 649.179 82.0313C650.147 81.3385 651.158 80.6927 652.173 80.0938C652.22 80.0521 652.262 80.0521 652.309 80.0052C652.538 79.8646 652.814 79.7292 653.048 79.5417C654.059 78.9427 655.028 78.3906 656.085 77.8385C656.132 77.7917 656.179 77.7917 656.225 77.7448C656.272 77.7031 656.361 77.7031 656.408 77.6563C656.595 77.5625 656.778 77.4688 657.007 77.3333C658.111 76.7344 659.22 76.1823 660.371 75.6719C660.647 75.5365 660.877 75.4427 661.153 75.3073C662.257 74.7969 663.366 74.3385 664.517 73.8802C664.746 73.7865 664.975 73.6927 665.205 73.6042C665.252 73.5573 665.345 73.5573 665.392 73.5104C666.632 73.0469 667.877 72.5885 669.121 72.1719C669.215 72.1302 669.262 72.1302 669.35 72.0833C669.444 72.0365 669.538 72.0365 669.58 71.9896C670.824 71.5729 672.022 71.2083 673.267 70.8854C673.449 70.8385 673.637 70.7917 673.819 70.7448C674.189 70.6563 674.6 70.5156 674.97 70.4219C675.246 70.3333 675.569 70.2865 675.845 70.1927C676.168 70.099 676.538 70.0104 676.861 69.9635C677.184 69.8698 677.507 69.8229 677.871 69.7344C678.106 69.6875 678.377 69.6406 678.611 69.5469C679.069 69.4583 679.486 69.3646 679.944 69.2708C680.449 69.1823 680.913 69.0885 681.418 68.9948C681.835 68.901 682.293 68.8594 682.71 68.7656C682.939 68.7188 683.168 68.6719 683.397 68.6719C683.767 68.625 684.09 68.5833 684.46 68.4896C684.965 68.3958 685.517 68.349 686.028 68.2604C686.533 68.2135 686.991 68.1198 687.502 68.0729C688.007 68.026 688.512 67.9375 689.064 67.8906C689.569 67.8438 690.08 67.7969 690.538 67.75C691.043 67.7083 691.554 67.6615 692.059 67.6615C692.564 67.6146 693.116 67.6146 693.627 67.6146C694.085 67.6146 694.548 67.5677 695.007 67.5677C698.048 67.5208 700.996 67.6615 703.851 67.9844C704.08 47.4427 699.522 40.7604 678.288 36.25C669.903 34.4531 661.569 33.901 653.095 32.9323C645.955 32.1042 638.309 30.8594 632.09 27.0365C630.111 25.8385 628.314 24.3646 626.699 22.6615L626.564 22.5208C622.6 18.2396 620.298 13.2188 619.288 7.50521C619.1 6.54167 618.689 2.02604 618.366 0C615.142 0.552084 610.028 2.53125 607.725 3.68229C600.814 7 594.783 12.0208 591.33 19.0208C588.934 23.9063 587.548 28.7396 586.444 34.0365C585.522 38.3646 584.741 42.9271 582.85 46.9323C577.788 57.8021 564.981 61.5365 554.205 63.8854C534.074 68.2604 528.965 72.6354 524.267 92.7188L524.22 92.9479C522.793 98.8906 520.444 104.141 515.606 108.099C512.288 110.771 508.236 112.521 504.366 114.271C499.304 116.531 494.559 118.74 489.814 121.688C476.824 129.75 468.58 144.625 471.71 159.87C484.517 153.099 503.356 152.365 516.663 156.922ZM684.319 79.9115C669.351 82.4896 654.475 89.8594 645.309 100.594C628.127 120.766 645.215 160.469 674.002 151.302C682.663 148.583 689.252 142.552 688.236 132.88C687.684 127.443 683.767 119.615 677.871 118.51C675.71 118.094 672.715 118.51 670.548 119.661C670.548 119.661 670.548 119.661 670.548 119.615C670.502 119.661 670.455 119.661 670.413 119.708C669.903 119.984 669.491 120.26 669.074 120.583C666.496 122.885 668.798 133.063 660.694 131.776C659.08 131.5 657.929 130.807 657.147 129.792C657.1 129.703 657.054 129.609 656.96 129.516C656.778 129.286 656.637 129.01 656.548 128.781C656.502 128.641 656.455 128.505 656.361 128.365C656.272 128.135 656.179 127.859 656.132 127.63C656.085 127.49 656.038 127.307 656.038 127.167C655.996 126.891 655.949 126.615 655.949 126.292C655.949 126.156 655.903 125.969 655.903 125.833C655.903 125.417 655.903 125.052 655.903 124.635C655.903 124.589 655.903 124.542 655.903 124.453C655.949 123.99 655.996 123.484 656.085 123.021C656.132 122.885 656.132 122.703 656.179 122.563C656.225 122.24 656.319 121.87 656.408 121.505C656.455 121.318 656.502 121.135 656.548 120.995C656.637 120.672 656.731 120.307 656.871 119.984C656.918 119.797 656.96 119.661 657.054 119.479C657.194 119.109 657.33 118.74 657.47 118.37C657.512 118.281 657.559 118.141 657.606 118.047C657.793 117.589 658.022 117.13 658.252 116.667C658.298 116.573 658.345 116.484 658.392 116.391C658.574 116.021 658.757 115.698 658.944 115.375C659.033 115.24 659.127 115.099 659.173 114.964C659.356 114.688 659.496 114.411 659.679 114.182C659.772 114.042 659.861 113.901 659.955 113.813C660.142 113.583 660.324 113.349 660.507 113.12C660.6 113.026 660.694 112.938 660.741 112.844C661.017 112.568 661.246 112.292 661.522 112.063C662.35 111.323 663.272 110.635 664.194 110.078C668.429 107.453 672.897 106.536 677.225 106.995C678.059 107.089 678.934 107.224 679.762 107.411C679.991 107.453 680.173 107.5 680.408 107.594C681.007 107.729 681.606 107.917 682.205 108.146C682.481 108.24 682.71 108.328 682.939 108.422C683.491 108.651 684.043 108.885 684.595 109.161C684.83 109.25 685.059 109.391 685.241 109.484C685.981 109.849 686.668 110.266 687.361 110.724C687.361 110.724 687.408 110.724 687.408 110.771C688.095 111.234 688.788 111.786 689.481 112.339C689.663 112.521 689.851 112.661 690.08 112.844C690.538 113.26 691.002 113.672 691.413 114.135C691.642 114.365 691.83 114.547 692.012 114.776C692.429 115.24 692.84 115.698 693.21 116.208C693.392 116.438 693.533 116.62 693.715 116.849C694.226 117.589 694.731 118.323 695.189 119.063C709.746 116.115 725.085 131.359 729.413 144.255C731.439 150.339 732.038 156 732.038 162.359C732.038 164.938 731.668 170.094 733.007 172.307C733.189 172.63 733.418 172.953 733.741 173.182C733.929 173.318 734.111 173.458 734.34 173.594C734.434 173.641 734.528 173.688 734.616 173.734C734.757 173.828 734.939 173.87 735.121 173.964C735.262 174.01 735.356 174.057 735.491 174.104C735.679 174.151 735.814 174.24 736.002 174.286C736.137 174.333 736.319 174.38 736.46 174.38C736.642 174.427 736.83 174.469 737.012 174.516C737.194 174.563 737.335 174.563 737.517 174.609C737.705 174.656 737.934 174.656 738.116 174.703C738.304 174.75 738.486 174.75 738.668 174.75C738.903 174.792 739.085 174.792 739.314 174.839C739.502 174.839 739.684 174.885 739.913 174.885C740.142 174.885 740.377 174.932 740.606 174.932C740.788 174.932 740.976 174.932 741.158 174.979C741.387 174.979 741.663 175.026 741.892 175.026C742.08 175.026 742.262 175.026 742.449 175.026C742.726 175.026 742.955 175.026 743.231 175.068C743.413 175.068 743.554 175.068 743.736 175.068C744.012 175.068 744.288 175.068 744.564 175.068C744.705 175.068 744.84 175.068 744.981 175.068C745.304 175.068 745.58 175.068 745.903 175.068C745.996 175.068 746.085 175.068 746.179 175.068C747.189 175.068 748.111 175.068 748.944 175.068H748.986C749.22 175.068 749.449 175.068 749.679 175.068C749.819 175.068 749.908 175.068 750.048 175.068C750.184 175.068 750.324 175.068 750.46 175.068C750.647 175.068 750.877 175.068 751.012 175.068C752.72 175.115 754.377 175.208 756.033 175.344C756.356 175.391 756.632 175.391 756.955 175.438C757.278 175.484 757.554 175.484 757.877 175.531C758.939 175.625 759.949 175.76 761.007 175.901C761.564 175.99 762.069 176.036 762.621 176.13C763.819 176.313 764.97 176.542 766.168 176.776C766.58 176.865 766.996 176.958 767.46 177.052C769.022 177.417 770.543 177.786 772.111 178.25C776.022 179.401 779.892 180.875 783.809 182.672C783.668 170.047 776.897 146.974 772.616 136.427C764.418 116.344 747.699 97.9219 727.845 87.5104C714.72 80.5573 699.106 77.3333 684.319 79.9115ZM511.507 557.5C536.699 546.354 556.647 541.745 576.725 521.068C577.694 520.052 578.892 518.995 579.35 517.656C579.72 516.505 581.377 515.583 582.345 514.984C584.923 513.188 596.809 494.948 599.293 490.99C609.335 475.281 617.074 463.953 632.965 453.495C641.069 448.156 649.866 443.964 659.356 441.708C662.074 441.063 664.793 440.599 667.554 440.234C667.97 440.188 669.028 440.047 669.903 439.911C669.397 439.448 668.845 438.99 668.569 438.76C656.731 428.807 639.184 417.708 624.585 412.599C610.767 407.76 596.58 407.021 582.069 406.703C568.574 406.38 554.387 406.516 541.309 402.693C537.85 401.682 534.538 400.438 531.314 398.823C519.059 392.792 507.913 381.875 496.72 373.859C480.97 362.578 465.356 356.13 445.965 354.01C429.569 352.214 414.554 354.38 398.293 355.344C380.929 356.406 366.283 355.068 350.022 348.208C335.241 341.99 321.559 333.328 306.96 326.651C291.069 319.417 275.684 315.411 258.137 316.979C228.564 319.557 211.569 340.281 208.439 368.885C205.814 392.745 211.064 405.734 228.752 421.854C236.444 428.854 247.725 437.099 258.413 438.021C270.293 439.036 285.08 435.766 293.278 426.552C301.892 416.88 302.397 406.745 301.522 394.401C301.111 388.646 296.043 382.656 291.804 379.068C287.475 375.38 277.71 369.208 271.861 372.526C266.887 375.333 261.085 382.38 264.814 388.188C265.689 389.568 266.934 390.901 267.903 392.328C268.038 392.516 268.179 392.745 268.267 392.974C268.408 393.203 268.543 393.438 268.684 393.667C268.778 393.849 268.866 394.036 268.96 394.219C269.054 394.448 269.189 394.677 269.283 394.911C269.377 395.094 269.418 395.323 269.512 395.51C269.606 395.74 269.699 395.969 269.741 396.151C269.788 396.385 269.835 396.568 269.882 396.797C269.929 397.026 269.975 397.214 269.975 397.443C269.975 397.672 269.975 397.859 269.929 398.089C269.929 398.224 269.929 398.318 269.929 398.458C269.929 398.594 269.882 398.734 269.835 398.87C269.788 399.01 269.741 399.193 269.653 399.333C269.606 399.422 269.606 399.516 269.559 399.563C269.512 399.698 269.465 399.792 269.377 399.932C269.236 400.115 269.1 400.297 268.96 400.484C268.913 400.531 268.913 400.573 268.866 400.62C268.778 400.714 268.684 400.807 268.59 400.943C268.267 401.219 267.856 401.495 267.35 401.771C261.408 404.63 254.684 395.646 253.163 390.813C249.293 378.651 258.507 363.958 270.616 361.01C280.934 358.479 293.278 364.651 300.647 371.651C305.991 376.76 308.522 381.141 311.335 387.865C312.028 389.568 314.465 388.74 316.168 388.74C320.361 388.786 324.554 389.198 328.699 389.979C357.163 395.141 382.08 413.193 410.59 416.651C418.835 417.661 427.356 417.708 435.647 417.708C446.611 417.755 458.538 417.432 469.361 419.229H469.502L490.225 424.25L490.46 424.344C505.153 430.422 516.205 443.5 524.955 456.307C528.689 461.786 536.147 472.885 531.913 479.703C529.241 484.036 522.47 485.693 517.819 486.797C510.725 488.5 503.767 489.885 496.955 492.693C481.064 499.281 465.08 511.255 453.658 524.104C447.897 530.599 443.064 537.464 437.861 544.323C430.304 554.276 422.934 561.828 412.616 569.016C393.689 582.234 369.877 589.833 346.752 585.318C335.33 583.109 324.002 578.042 313.637 572.839C301.892 566.896 290.47 560.26 278.908 554C255.97 541.698 228.887 528.943 202.22 533.917C197.705 534.745 193.147 535.802 189.507 532.26C180.434 523.323 193.377 504.578 200.517 497.99C217.007 482.698 233.403 479.979 255.142 479.938C277.298 479.891 280.335 476.896 298.668 465.839C316.491 455.063 334.319 448.984 354.585 457.365C379.778 467.776 390.465 496.469 367.298 515.448C359.189 522.078 348.689 525.214 338.371 522.818C330.309 520.927 322.481 515.448 319.949 507.25C319.116 504.531 318.934 501.63 319.439 498.818C320.361 494.073 323.033 489.698 326.996 486.891C327.225 486.75 327.455 486.615 327.684 486.427C327.871 486.339 328.007 486.198 328.194 486.109C328.377 486.016 328.606 485.875 328.793 485.786C328.975 485.693 329.158 485.599 329.345 485.51C329.574 485.417 329.757 485.323 329.986 485.229C330.173 485.141 330.403 485.047 330.585 485C330.819 484.911 331.048 484.865 331.278 484.818C331.46 484.771 331.694 484.677 331.877 484.635C332.106 484.589 332.335 484.542 332.616 484.542C332.798 484.495 333.028 484.495 333.215 484.448C333.444 484.448 333.72 484.448 333.949 484.495C334.132 484.495 334.319 484.495 334.502 484.542C334.778 484.589 335.054 484.677 335.283 484.771C335.423 484.818 335.559 484.818 335.699 484.911C336.116 485.094 336.481 485.276 336.804 485.552C337.173 485.828 337.449 486.198 337.725 486.568C337.772 486.661 337.866 486.75 337.913 486.891C338.095 487.26 338.278 487.625 338.371 487.995C338.465 488.365 338.554 488.776 338.6 489.193C338.647 489.698 338.6 490.161 338.507 490.573C338.465 490.714 338.418 490.849 338.418 490.99C338.324 491.266 338.278 491.542 338.142 491.818C338.095 491.958 338.002 492.094 337.955 492.234C337.819 492.464 337.679 492.693 337.543 492.875C337.449 493.016 337.356 493.109 337.267 493.245C337.08 493.432 336.897 493.661 336.715 493.844C333.673 496.839 328.33 498.359 331.46 505.266C331.783 506.005 332.199 506.698 332.705 507.292C336.392 511.948 343.392 512.87 348.871 511.901C356.429 510.609 362.83 505.911 366.423 499.188C368.215 495.87 369.002 492.188 368.538 488.458C367.481 480.12 360.85 473.443 353.757 469.62C344.679 464.734 333.903 463.677 324.002 466.438C314.007 469.203 306.59 474.177 297.975 479.568C286.83 486.521 277.574 490.667 264.168 491.266C241.783 492.234 226.215 489.651 208.298 506.375C203.835 510.521 199.225 516.599 198.168 522.724L198.028 523.458C198.814 523.229 199.731 522.953 200.241 522.865C203.418 522.125 206.642 521.755 209.866 521.526C233.262 519.917 257.673 530.464 278.08 540.87C290.929 547.411 303.366 554.641 316.168 561.229C326.163 566.385 337.913 572.099 348.965 574.266C375.173 579.375 403.22 565.927 420.908 547.042C426.116 541.469 430.491 535.667 434.955 529.542C442.694 518.995 449.694 510.932 459.877 502.505C472.955 491.635 487.559 482.698 504.137 478.276C508.423 477.125 512.611 476.432 516.986 475.651C517.772 475.516 521.179 474.917 521.595 474.13C522.423 472.609 516.345 464 515.512 462.802C508.1 451.979 498.47 440.094 486.038 434.938C480.324 432.589 466.694 430.193 460.382 429.682C443.34 428.349 426.158 430.052 409.163 427.979C376.371 424.021 349.564 402.51 316.814 399.839C315.939 399.745 314.377 399.698 313.731 400.484C312.809 401.589 312.903 405.917 312.809 407.391C312.715 408.776 312.533 410.156 312.345 411.49C312.304 411.859 312.21 412.229 312.163 412.599C311.981 413.656 311.752 414.714 311.47 415.776C311.335 416.234 311.241 416.698 311.106 417.156C310.871 418.031 310.595 418.906 310.278 419.734C310.137 420.104 309.996 420.474 309.861 420.844C309.814 420.932 309.767 421.026 309.72 421.12C309.356 422.083 308.939 423.005 308.481 423.927C308.34 424.203 308.205 424.479 308.064 424.755C307.512 425.818 306.913 426.875 306.267 427.891C306.085 428.208 305.856 428.531 305.621 428.854C305.163 429.547 304.699 430.193 304.241 430.839C303.595 431.714 302.908 432.542 302.168 433.37C301.939 433.646 301.663 433.969 301.434 434.245C301.293 434.38 301.199 434.521 301.064 434.661C300.095 435.672 299.085 436.641 298.022 437.563C294.429 440.646 290.241 443.224 285.496 445.255C272.83 450.641 255.97 451.703 243.304 445.667C241.278 444.698 239.298 443.688 237.408 442.625C237.225 442.536 236.996 442.396 236.809 442.307C236.304 442.026 235.845 441.708 235.335 441.432C233.955 440.599 232.621 439.818 231.33 438.943C230.085 438.115 228.845 437.24 227.647 436.365C227.324 436.135 227.002 435.854 226.679 435.625C225.574 434.75 224.465 433.828 223.361 432.911C223.085 432.677 222.809 432.448 222.533 432.172C221.934 431.667 221.382 431.156 220.83 430.604C220.278 430.099 219.767 429.547 219.262 429.042C218.71 428.49 218.158 427.932 217.653 427.38C217.142 426.828 216.637 426.276 216.132 425.677C215.439 424.896 214.746 424.156 214.106 423.328C211.481 420.104 206.043 411.536 202.314 410.109C200.33 409.375 198.215 409.786 196.278 410.526C192.455 411.906 188.772 413.427 185.179 415.13C174.725 420.057 165.236 426.276 156.392 434.198C146.58 442.995 138.475 453.036 129.861 462.896C119.59 474.641 109.46 484.677 95.7776 492.51C83.8505 499.328 68.3244 502.229 55.0171 505.406C27.0119 512.13 4.57964 520.792 0.43381 552.984C0.0223528 556.302 -0.623482 568.458 1.40256 572.281C2.5536 571.547 4.35048 570.167 5.04319 569.656C7.75673 567.724 10.5224 565.792 13.4234 564.13C15.2671 563.073 17.1994 562.057 19.2255 561.323C30.2828 557.083 45.2515 556.672 56.7671 559.297C71.3192 562.609 85.689 573.438 98.4026 581.172C109.918 588.172 122.356 594.531 136.08 594.854C144.554 595.036 153.215 593.656 161.507 592.135C169.429 590.661 177.257 589.005 185.179 587.714C186.559 587.484 187.944 587.297 189.324 587.068C210.694 584.073 230.085 585.365 249.064 596.651C263.017 604.984 275.038 616.271 288.304 625.62C303.736 636.536 318.981 643.583 337.955 645.885C369.923 649.802 414.83 633.589 440.762 615.167C447.345 610.469 453.429 605.307 459.184 599.599C464.064 594.76 468.627 589.646 473.418 584.719C485.21 572.375 495.986 564.359 511.507 557.5ZM140.871 690.792C140.918 690.333 141.007 689.87 141.054 689.411C141.147 688.813 141.236 688.214 141.377 687.615C142.205 683.745 143.772 680.063 146.074 676.792C146.809 675.729 147.642 674.719 148.517 673.75C148.793 673.427 149.116 673.151 149.439 672.828C150.038 672.229 150.632 671.589 151.231 671.031C151.6 670.714 152.017 670.391 152.429 670.068C153.028 669.604 153.627 669.099 154.225 668.641C154.689 668.318 155.147 668.042 155.611 667.766C160.627 664.542 166.434 662.469 172.377 661.406C176.611 660.672 181.033 660.531 185.361 660.948C187.481 661.13 189.554 661.453 191.58 661.911L191.809 661.958C208.163 665.599 220.043 676.563 225.574 690.01C223.455 658.922 230.314 634.464 249.111 609.87C247.866 608.99 246.621 608.208 245.377 607.474C245.054 607.24 244.689 607.057 244.366 606.875C243.397 606.276 242.382 605.724 241.418 605.214C241.142 605.078 240.866 604.938 240.632 604.802C239.434 604.156 238.241 603.604 237.043 603.052C236.767 602.911 236.486 602.818 236.21 602.682C235.246 602.266 234.324 601.854 233.356 601.484C233.033 601.349 232.71 601.208 232.345 601.115C231.189 600.703 229.996 600.286 228.845 599.917H228.798C228.752 599.917 228.705 599.875 228.658 599.875C227.507 599.505 226.403 599.229 225.298 598.953C224.975 598.859 224.606 598.766 224.283 598.719C224.1 598.677 223.866 598.63 223.684 598.583C223.543 598.536 223.455 598.536 223.314 598.49C222.715 598.354 222.074 598.26 221.475 598.12C221.199 598.078 220.965 598.031 220.689 597.984C219.908 597.844 219.127 597.708 218.387 597.615C218.205 597.568 218.064 597.568 217.882 597.521C217.835 597.521 217.835 597.521 217.788 597.521C217.606 597.479 217.418 597.479 217.283 597.479C217.007 597.432 216.684 597.432 216.408 597.385C215.668 597.292 214.934 597.245 214.194 597.156C213.965 597.156 213.736 597.109 213.507 597.109C213.272 597.109 213.043 597.063 212.861 597.063C212.72 597.063 212.538 597.063 212.397 597.016C211.71 596.969 210.97 596.927 210.283 596.927C210.095 596.927 209.866 596.927 209.684 596.927C209.543 596.927 209.408 596.927 209.267 596.927C209.173 596.927 209.038 596.927 208.944 596.927C208.533 596.927 208.163 596.927 207.746 596.927C207.47 596.927 207.241 596.927 206.965 596.927C206.642 596.927 206.366 596.927 206.043 596.927C205.908 596.927 205.767 596.927 205.627 596.927C205.309 596.927 205.028 596.927 204.71 596.969C204.387 596.969 204.064 596.969 203.741 597.016H203.694C203.465 597.016 203.189 597.016 202.96 597.063C202.819 597.063 202.679 597.063 202.543 597.063C202.267 597.063 201.944 597.109 201.668 597.109C200.699 597.156 199.778 597.245 198.814 597.339C198.444 597.385 198.074 597.385 197.663 597.432C197.387 597.479 197.153 597.479 196.877 597.521C196.418 597.568 195.913 597.615 195.449 597.708C195.173 597.755 194.85 597.755 194.574 597.802C194.252 597.844 193.929 597.844 193.606 597.891C193.007 597.984 192.408 598.078 191.809 598.12C191.304 598.214 190.752 598.26 190.199 598.354C189.97 598.401 189.741 598.401 189.507 598.443C188.267 598.63 187.022 598.813 185.778 599.042C185.637 599.089 185.502 599.089 185.361 599.089C183.153 599.458 180.85 599.87 178.59 600.286C177.762 600.427 176.887 600.609 176.059 600.75C175.137 600.932 174.262 601.068 173.34 601.255C167.72 602.313 161.918 603.417 155.84 604.385C153.949 604.661 152.064 604.938 150.173 605.214C144.647 605.906 139.074 606.323 133.502 605.953C119.408 627 116.642 646.255 90.939 657.536C75.9286 664.125 59.3453 665.693 45.663 675.5C36.5901 681.995 32.0328 691.714 31.2515 702.677C30.9703 706.682 31.1578 710.875 31.9859 714.833C32.1682 715.849 32.9546 719.026 33.7359 720.224C35.3505 719.719 39.4494 717.047 40.413 716.448C45.3869 713.5 50.3192 711.198 55.939 709.724C76.1578 704.474 96.5588 712.578 113.512 723.313C131.106 734.411 142.345 745.328 164.314 746.802C171.267 747.26 178.548 746.661 185.408 744.818V744.823C194.621 742.333 203.142 737.635 209.361 730.172L209.496 730.036C226.814 709.031 215.533 679.047 189.418 673.198L189.184 673.151C187.944 672.875 186.699 672.646 185.408 672.505V672.51C178.085 671.63 170.486 672.781 163.944 676.286C158.278 679.323 152.845 684.667 152.106 691.344C151.694 694.802 152.663 698.068 154.595 700.974C155.699 702.677 156.897 703.922 158.189 704.839C158.142 704.839 158.095 704.797 158.095 704.797C158.189 704.839 158.283 704.885 158.324 704.979C158.465 705.073 158.6 705.161 158.741 705.255C159.017 705.438 159.34 705.625 159.616 705.76C159.752 705.854 159.892 705.901 160.033 705.995C160.397 706.177 160.767 706.313 161.137 706.406C161.272 706.453 161.46 706.5 161.595 706.547C161.918 706.635 162.241 706.682 162.564 706.776C162.793 706.823 162.981 706.823 163.21 706.87C163.439 706.87 163.621 706.911 163.856 706.911C164.085 706.911 164.361 706.911 164.59 706.911C164.772 706.911 164.913 706.87 165.095 706.87C165.741 706.823 166.34 706.729 166.986 706.547C166.986 706.547 166.986 706.547 167.033 706.547C167.491 706.406 167.996 706.271 168.46 706.083H168.507C168.871 705.948 169.288 705.76 169.658 705.625C169.746 705.578 169.84 705.531 169.934 705.484C170.257 705.349 170.621 705.161 170.944 704.979C171.085 704.885 171.22 704.839 171.314 704.75C171.637 704.563 171.913 704.38 172.236 704.198C172.418 704.104 172.559 703.964 172.741 703.875C172.975 703.734 173.205 703.599 173.387 703.411C173.434 703.365 173.528 703.323 173.569 703.276C173.757 703.135 173.939 703 174.127 702.859C174.356 702.677 174.585 702.49 174.814 702.307C174.955 702.214 175.09 702.078 175.231 701.984C175.366 701.849 175.507 701.755 175.689 701.615C175.83 701.479 175.965 701.385 176.153 701.25C176.564 700.88 176.981 700.464 177.392 700.052C180.064 697.427 183.564 698.484 185.502 700.786V700.74C187.158 702.724 187.668 705.672 185.502 708.021V707.974C185.272 708.25 184.996 708.479 184.72 708.708L184.58 708.802C175.324 716.542 166.387 721.927 154.455 715.573C151.465 713.958 148.84 711.885 146.72 709.401C146.444 709.078 146.215 708.708 145.934 708.385C145.705 708.063 145.429 707.786 145.199 707.469C144.923 707.099 144.694 706.682 144.46 706.271C144.278 705.948 144.048 705.672 143.908 705.349C143.679 704.932 143.496 704.474 143.267 704.01C143.127 703.688 142.944 703.411 142.804 703.089C142.481 702.307 142.205 701.526 141.929 700.698C141.606 699.635 141.377 698.531 141.194 697.474C141.147 697.104 141.1 696.734 141.1 696.411C141.007 695.677 140.918 694.984 140.918 694.245C140.918 693.786 140.918 693.37 140.918 692.958C140.778 692.083 140.824 691.438 140.871 690.792ZM313.225 693.375C305.486 692.453 293.002 694.016 287.293 699.911C281.949 705.396 280.382 719.948 289.965 721.375C295.444 722.203 296.918 720.729 298.715 715.896C298.897 715.432 299.085 715.068 299.314 714.698C299.361 714.604 299.449 714.557 299.496 714.469C299.684 714.193 299.913 713.958 300.095 713.776C300.236 713.682 300.324 713.594 300.465 713.5C300.647 713.359 300.877 713.177 301.064 713.083C301.199 712.995 301.387 712.948 301.522 712.854C301.752 712.766 301.939 712.672 302.168 712.578C302.35 712.531 302.491 712.484 302.673 712.443C302.908 712.396 303.09 712.349 303.319 712.302C303.507 712.302 303.689 712.255 303.824 712.255C304.059 712.255 304.288 712.255 304.47 712.255C304.658 712.255 304.793 712.302 304.981 712.349C305.21 712.396 305.392 712.443 305.621 712.484C305.809 712.531 305.944 712.578 306.132 712.672C306.361 712.766 306.543 712.854 306.731 712.948C306.866 713.042 307.007 713.13 307.142 713.224C307.33 713.359 307.512 713.5 307.694 713.641C307.835 713.729 307.929 713.87 308.064 714.005C308.205 714.193 308.34 714.375 308.481 714.557C308.569 714.698 308.663 714.839 308.757 715.021C308.892 715.25 308.986 715.479 309.033 715.708C309.08 715.896 309.168 716.078 309.215 716.266C309.262 716.542 309.309 716.818 309.356 717.094C309.356 717.276 309.397 717.464 309.397 717.646C309.397 717.693 309.397 717.74 309.397 717.781C309.397 718.063 309.356 718.38 309.356 718.703C309.309 718.938 309.309 719.167 309.262 719.396C309.215 719.766 309.08 720.177 308.939 720.547C308.892 720.776 308.845 720.964 308.757 721.193C308.71 721.286 308.663 721.422 308.616 721.516C308.481 721.927 308.293 722.344 308.064 722.76C308.017 722.896 307.97 722.99 307.882 723.125C307.788 723.313 307.694 723.448 307.606 723.635C307.236 724.323 306.819 725.063 306.267 725.844C302.444 731.557 294.705 733.719 288.168 732.708C281.949 731.74 277.158 728.24 274.35 723.125C274.028 722.526 273.705 721.839 273.429 721.193C273.288 720.87 273.153 720.594 273.012 720.318C272.642 719.302 272.324 718.292 272.09 717.229C269.377 705.12 274.533 693.328 285.173 687.198C279.46 671.724 286.554 655.281 299.038 645.286C297.194 644.365 295.444 643.396 293.694 642.385C293.278 642.156 292.866 641.927 292.496 641.693C292.08 641.464 291.668 641.188 291.252 640.958C290.147 640.313 289.043 639.667 287.981 638.979C287.845 638.885 287.705 638.792 287.569 638.698C286.83 638.24 286.142 637.781 285.449 637.271C284.481 636.63 283.512 635.984 282.548 635.339C282.361 635.198 282.179 635.063 281.996 634.922C281.35 634.464 280.705 634 280.059 633.542C279.231 632.943 278.403 632.391 277.621 631.792C277.434 631.651 277.298 631.563 277.111 631.422C275.96 630.547 274.762 629.672 273.611 628.797C273.335 628.568 273.012 628.339 272.736 628.151C267.903 624.469 263.111 620.599 258.043 616.682C240.955 639.068 234.783 661.13 236.72 689.411C238.746 719.214 250.949 749.885 282.085 759.005C311.288 767.573 347.949 747.63 338.048 713.917C334.684 701.802 325.522 694.844 313.225 693.375ZM644.434 626.401C641.069 623.641 637.293 621.844 633.335 620.094C629.788 618.526 625.965 616.917 623.111 614.245C617.121 608.672 617.35 599.964 618.548 592.505C619.241 588.083 620.069 583.708 617.673 579.651C616.752 578.042 615.507 576.703 613.991 575.599C611.179 573.573 607.632 572.469 604.314 571.5C593.444 568.417 584.694 566.068 584.97 552.479C585.158 544.323 588.194 534.974 586.861 526.917C583.267 530.786 579.72 534.146 576.08 537.188C574.746 538.292 573.455 539.349 572.074 540.365C571.892 540.5 571.705 540.641 571.475 540.781C570.231 541.698 569.033 542.573 567.793 543.448C567.517 543.635 567.283 543.818 567.007 543.958C565.72 544.833 564.429 545.615 563.137 546.443C562.955 546.536 562.819 546.672 562.632 546.766C562.449 546.906 562.262 546.995 562.033 547.135C560.746 547.917 559.455 548.656 558.121 549.391C557.705 549.62 557.288 549.854 556.877 550.083C556.184 550.453 555.538 550.776 554.85 551.141C554.205 551.464 553.606 551.786 552.96 552.109C552.778 552.203 552.59 552.292 552.408 552.385C552.267 552.432 552.179 552.526 552.038 552.568C551.21 552.984 550.382 553.354 549.554 553.766C548.814 554.089 548.127 554.458 547.434 554.781C547.158 554.917 546.835 555.057 546.559 555.198C545.684 555.563 544.809 555.979 543.887 556.349C543.382 556.578 542.918 556.76 542.413 556.99C541.996 557.177 541.538 557.359 541.121 557.547C539.418 558.234 537.715 558.974 535.965 559.661C527.121 563.161 518.324 566.526 509.85 570.854C524.772 576.979 534.215 587.438 538.361 603.234C544.903 598.583 552.913 596.833 560.882 598.354C568.757 599.875 576.173 604.573 580.225 611.573C582.621 615.719 583.637 620.323 583.22 625.115C583.127 625.99 582.991 626.865 582.809 627.693C582.809 627.786 582.762 627.828 582.762 627.922C582.715 628.109 582.668 628.292 582.621 628.521C582.486 629.12 582.298 629.719 582.069 630.318C581.975 630.594 581.887 630.823 581.793 631.099C581.564 631.698 581.288 632.297 580.965 632.849C580.918 632.943 580.871 632.99 580.824 633.083C580.736 633.219 580.689 633.359 580.595 633.495C580.225 634.188 579.814 634.833 579.35 635.474C579.262 635.568 579.168 635.708 579.074 635.797C578.663 636.349 578.246 636.859 577.788 637.365C577.741 637.411 577.741 637.411 577.694 637.458C577.554 637.594 577.418 637.781 577.236 637.917C576.819 638.333 576.356 638.745 575.944 639.115C575.762 639.255 575.574 639.438 575.392 639.578C574.84 639.99 574.288 640.406 573.731 640.729C573.548 640.865 573.366 640.958 573.179 641.094C572.533 641.464 571.845 641.833 571.199 642.156C571.106 642.203 570.97 642.245 570.877 642.292C570.278 642.568 569.632 642.802 568.991 643.031C568.757 643.12 568.574 643.167 568.345 643.214C567.606 643.443 566.918 643.63 566.179 643.766C566.043 643.813 565.903 643.813 565.767 643.813C560.653 644.641 555.173 643.536 550.429 639.854C549.137 638.839 547.804 637.781 546.653 636.63C546.054 636.031 545.455 635.385 544.897 634.646C542.871 632.021 541.767 628.797 544.715 626.036C545.819 624.974 547.205 624.24 548.767 624.375C554.574 624.885 556.965 635.615 565.996 631.932C568.668 630.823 570.741 628.984 571.616 626.219C572.996 621.703 570.6 616.729 567.33 613.646C562.772 609.313 556.647 608.255 550.658 609.911C540.205 612.771 535.548 627.646 538.038 637.688C541.767 652.797 556.6 657.906 570.741 656.938C590.96 655.557 625.502 641.88 641.486 660.073L641.715 660.396L644.158 665C648.257 660.349 650.882 653.484 651.621 647.589C652.632 639.62 650.788 631.609 644.434 626.401ZM497.231 578.453C496.08 579.286 494.97 580.161 493.866 581.036C493.819 581.078 493.819 581.078 493.772 581.125C492.21 582.417 490.642 583.75 489.168 585.089C489.121 585.135 489.074 585.177 489.033 585.177C488.939 585.224 488.892 585.318 488.798 585.365C488.569 585.594 488.293 585.823 488.064 586.057C486.59 587.438 485.116 588.818 483.689 590.245L483.642 590.292C478.944 595.036 474.475 599.875 469.918 604.615C470.517 604.297 471.158 603.974 471.804 603.698C473.877 602.776 475.996 602.177 477.975 601.807C482.814 600.516 487.835 600.885 492.668 602.729C495.845 603.927 498.793 605.859 501.1 608.349L501.236 608.484C506.116 613.875 508.007 621.016 505.382 627.969C505.153 628.615 504.83 629.302 504.46 629.948C504.366 630.135 504.231 630.365 504.09 630.547C503.814 631.052 503.491 631.516 503.127 632.021C502.892 632.344 502.616 632.714 502.34 633.036C502.293 633.083 502.252 633.172 502.205 633.219C501.788 633.682 501.33 634.141 500.866 634.557C499.022 636.167 496.814 637.135 494.465 636.63C493.361 636.349 492.392 635.75 491.658 634.922C491.377 634.599 491.147 634.276 490.918 634C490.871 633.911 490.783 633.818 490.736 633.724C490.595 633.542 490.502 633.313 490.413 633.125C490.366 633.036 490.319 632.896 490.272 632.807C490.225 632.62 490.137 632.438 490.09 632.25C490.09 632.161 490.043 632.068 490.043 631.932C489.996 631.745 489.996 631.563 489.996 631.375C489.996 631.286 489.996 631.193 489.996 631.146C490.043 630.641 490.184 630.135 490.366 629.625C490.413 629.536 490.46 629.49 490.46 629.396C490.548 629.214 490.642 629.073 490.736 628.891C490.783 628.797 490.824 628.75 490.871 628.661C490.965 628.521 491.059 628.339 491.194 628.198C491.241 628.109 491.288 628.063 491.377 627.969C491.517 627.828 491.611 627.646 491.746 627.51C491.793 627.464 491.84 627.37 491.887 627.323C492.298 626.865 492.715 626.448 493.085 626.036C493.22 625.896 493.361 625.755 493.496 625.62C493.543 625.526 493.637 625.479 493.684 625.391C493.772 625.25 493.913 625.161 494.007 625.021C494.054 624.927 494.142 624.88 494.189 624.792C494.236 624.745 494.236 624.698 494.283 624.698L494.236 624.745C494.647 624.24 494.97 623.729 495.064 623.224C495.434 620.875 494.283 617.833 492.715 616.083L492.58 615.948C488.71 611.849 481.986 611.526 477.33 614.38C468.533 619.724 467.752 633.589 474.382 641.094L474.522 641.234C476.09 642.938 477.929 644.365 479.955 645.427C492.533 651.917 511.371 645.333 520.58 635.568C530.069 625.526 530.022 608.625 523.668 596.88C517.819 585.87 508.653 581.865 497.231 578.453ZM951.601 313.521C948.283 302.193 937.137 294.776 926.361 291.505C914.71 288.005 903.653 288.469 891.726 287.547C874.361 286.167 862.387 280.958 849.996 268.385C843.96 262.26 838.71 255.49 833.736 248.536C825.814 237.479 818.861 227.073 810.34 217.443C806.054 212.656 801.403 208.047 795.97 203.672C794.449 202.427 782.241 194.417 780.215 193.495C764.694 186.078 748.528 185.021 731.668 186.953C718.267 188.474 710.069 189.578 697.538 195.292C685.059 201 674.741 208.875 664.517 217.443H664.47C661.981 219.563 659.449 221.682 656.96 223.891C625.642 250.885 590.361 276.307 546.606 268.292C544.022 267.833 541.491 267.328 538.96 266.771L537.944 266.542C539.512 275.109 547.804 285.656 554.252 291.094C571.475 305.74 593.538 310.068 615.278 313.245C632.09 315.734 640.194 317.578 654.199 327.802C656.272 329.323 658.252 331.672 660.231 333.422C682.34 353.182 703.252 364.51 733.694 359.354C756.679 355.484 772.434 343.188 779.522 320.708C786.757 297.724 782.47 273.313 761.147 259.682C746.085 250.052 726.694 249.224 710.757 257.193C707.627 258.76 704.632 260.74 702.194 263.271L702.054 263.411C697.309 268.432 695.699 275.938 696.064 282.661C696.804 295.24 704.772 308.318 719.095 304.542C722.502 303.62 724.991 302.099 727.064 299.292L727.158 299.151C728.351 297.495 729.46 295.146 730.981 293.578C731.069 293.49 731.163 293.396 731.298 293.302C731.392 293.214 731.486 293.12 731.621 293.026C731.715 292.938 731.856 292.844 731.944 292.75C732.038 292.656 732.173 292.615 732.267 292.521C732.408 292.427 732.496 292.38 732.637 292.339C732.731 292.292 732.866 292.198 732.96 292.151C733.095 292.104 733.236 292.057 733.371 292.016C733.512 291.969 733.606 291.922 733.741 291.922C733.882 291.875 734.064 291.875 734.205 291.875C734.34 291.875 734.434 291.828 734.569 291.828C734.757 291.828 734.939 291.875 735.121 291.875C735.262 291.875 735.356 291.875 735.491 291.922C735.72 291.969 735.955 292.057 736.184 292.104C736.278 292.151 736.366 292.151 736.507 292.198C736.83 292.339 737.194 292.474 737.564 292.703C738.439 293.214 739.132 293.901 739.637 294.776C740.007 295.469 740.189 296.161 740.283 296.896C740.283 297.078 740.33 297.266 740.33 297.448C740.33 297.677 740.33 297.953 740.283 298.188C740.283 298.37 740.283 298.51 740.236 298.693C740.189 298.969 740.101 299.292 740.054 299.615C740.007 299.75 740.007 299.844 739.96 299.984C739.824 300.396 739.684 300.859 739.455 301.271C739.267 301.688 739.038 302.146 738.809 302.563C738.762 302.698 738.668 302.792 738.58 302.932C738.392 303.25 738.21 303.526 738.028 303.849C737.934 303.99 737.793 304.125 737.705 304.313C737.517 304.589 737.335 304.865 737.106 305.141C736.965 305.281 736.877 305.464 736.736 305.599C736.554 305.833 736.319 306.109 736.09 306.339C735.955 306.474 735.814 306.661 735.679 306.797C735.444 307.031 735.215 307.26 735.033 307.49C734.892 307.63 734.757 307.766 734.616 307.906C734.387 308.135 734.158 308.365 733.929 308.594C733.788 308.734 733.653 308.87 733.512 309.01C733.283 309.24 733.054 309.422 732.819 309.656C732.684 309.792 732.543 309.885 732.408 310.021C732.173 310.208 731.944 310.438 731.715 310.62C731.58 310.714 731.439 310.854 731.298 310.943C731.069 311.13 730.84 311.313 730.611 311.495C730.47 311.589 730.382 311.682 730.241 311.771C730.012 311.958 729.736 312.141 729.507 312.281C729.413 312.328 729.319 312.417 729.231 312.464C728.908 312.693 728.585 312.88 728.309 313.016C726.371 314.167 724.252 315.089 722.043 315.641C714.444 317.625 706.798 316.932 700.121 312.604C682.387 301.177 679.439 270.875 693.903 255.625L694.038 255.49C708.366 240.609 736.319 237.109 755.205 244.021C779.246 252.865 795.184 276.214 794.356 301.917C793.158 338.349 771.048 365.479 734.481 370.635C718.449 372.896 719.189 377.823 709.101 388.828C696.851 402.234 681.741 413.75 665.668 422.224C666.173 422.589 666.725 422.958 667.324 423.375C667.418 423.469 667.554 423.557 667.647 423.604C668.845 424.432 670.09 425.401 671.377 426.37C671.47 426.458 671.564 426.505 671.653 426.599C672.944 427.609 674.236 428.625 675.475 429.682C675.616 429.776 675.71 429.87 675.845 430.005C676.444 430.516 677.043 431.068 677.595 431.573C677.595 431.573 677.642 431.573 677.642 431.62C678.194 432.125 678.746 432.677 679.257 433.182C679.392 433.323 679.486 433.417 679.621 433.552C680.085 434.016 680.543 434.521 680.96 434.979C682.34 436.594 683.397 438.161 683.908 439.589C686.533 447.417 679.21 449.719 672.574 450.917C672.069 451.01 671.517 451.104 671.012 451.193C670.965 451.193 670.918 451.193 670.918 451.193C669.72 451.38 668.522 451.563 667.507 451.698C667.002 451.792 666.543 451.839 666.127 451.932C650.653 454.927 636.007 463.354 625.272 474.823C624.397 475.745 623.569 476.708 622.741 477.677C622.512 477.953 622.231 478.276 622.002 478.599C621.772 478.875 621.543 479.198 621.314 479.474C620.991 479.891 620.621 480.302 620.298 480.766C619.975 481.224 619.606 481.641 619.288 482.099C618.965 482.516 618.642 482.927 618.319 483.344C618.225 483.479 618.132 483.573 618.043 483.714C617.996 483.802 617.949 483.849 617.903 483.943C617.58 484.401 617.257 484.865 616.892 485.323C616.658 485.646 616.429 485.922 616.246 486.245C615.83 486.844 615.418 487.443 615.002 488.042C614.955 488.089 614.908 488.177 614.866 488.224C613.897 489.651 612.929 491.125 611.96 492.557C611.918 492.646 611.871 492.74 611.778 492.833C609.752 495.917 607.819 499.005 605.882 501.953C602.658 506.88 599.34 511.854 595.752 516.552C625.689 521.297 658.345 517.656 681.835 496.792C689.34 490.115 695.653 482.839 702.653 475.745C713.939 464.276 724.809 457.552 739.778 451.563C749.726 447.599 760.179 444.792 770.543 442.214C794.726 436.224 826.83 430.604 842.762 409.464C846.262 404.813 848.705 399.286 850.871 393.943C853.449 387.542 855.798 381.094 858.746 374.828C866.991 357.323 878.319 344.938 894.949 334.943C911.163 325.177 929.814 319.974 948.653 318.865C949.205 318.818 952.199 318.865 952.522 318.682C952.845 317.854 951.788 314.214 951.601 313.521Z" fill="#FFDB81"/>
</svg>
