<svg width="807" height="485" viewBox="0 0 807 485" fill="none" xmlns="http://www.w3.org/2000/svg">
<g clip-path="url(#clip0_17_884)">
<rect width="807" height="485" fill="#F4EFE6"/>
<path d="M451.571 370.271C451.571 375.552 455.87 379.844 461.16 379.844C466.451 379.844 470.749 375.552 470.749 370.271C470.749 364.995 466.451 360.703 461.16 360.703C455.87 360.703 451.571 364.995 451.571 370.271Z" fill="#EADBCA"/>
<path d="M739.287 370.271C739.287 375.552 743.586 379.844 748.866 379.844C754.146 379.844 758.455 375.552 758.455 370.271C758.455 364.995 754.156 360.703 748.866 360.703C743.576 360.703 739.287 364.995 739.287 370.271Z" fill="#EADBCA"/>
<path d="M332.73 420.448L403.344 463.068L473.958 420.448L403.344 377.823L332.73 420.448ZM403.344 456.047L344.353 420.448L403.344 384.839L462.329 420.448L403.344 456.047Z" fill="#EADBCA"/>
<mask id="mask0_17_884" style="mask-type:luminance" maskUnits="userSpaceOnUse" x="0" y="398" width="36" height="44">
<path d="M0 398.667H35.028V441.333H0V398.667Z" fill="white"/>
</mask>
<g mask="url(#mask0_17_884)">
<path d="M0 399.573V441.318L34.5898 420.448L0 399.573Z" fill="#EADBCA"/>
</g>
<path d="M368.764 420.448L403.344 441.318L437.933 420.448L403.344 399.573L368.764 420.448Z" fill="#EADBCA"/>
<mask id="mask1_17_884" style="mask-type:luminance" maskUnits="userSpaceOnUse" x="734" y="377" width="73" height="87">
<path d="M734.879 377.333H806.682V464H734.879V377.333Z" fill="white"/>
</mask>
<g mask="url(#mask1_17_884)">
<path d="M806.682 463.068V456.047L747.697 420.448L806.682 384.838V377.823L736.068 420.448L806.682 463.068Z" fill="#EADBCA"/>
</g>
<path d="M131.055 420.448L201.675 463.068L272.289 420.448L201.675 377.823L131.055 420.448ZM201.675 456.047L142.684 420.448L201.675 384.839L260.66 420.448L201.675 456.047Z" fill="#EADBCA"/>
<path d="M595.424 420.448C595.424 425.719 599.723 430.016 605.013 430.016C610.303 430.016 614.602 425.719 614.602 420.448C614.602 415.177 610.303 410.875 605.013 410.875C599.723 410.875 595.424 415.167 595.424 420.448ZM608.582 420.448C608.582 422.401 606.985 424.01 605.013 424.01C603.046 424.01 601.444 422.401 601.444 420.448C601.444 418.49 603.046 416.885 605.013 416.885C606.985 416.885 608.582 418.479 608.582 420.448Z" fill="#EADBCA"/>
<path d="M481.82 383.401C481.82 395.714 491.848 405.719 504.176 405.719C516.509 405.719 526.537 395.714 526.537 383.401C526.537 371.094 516.509 361.078 504.176 361.078C491.848 361.078 481.82 371.094 481.82 383.401ZM520.516 383.401C520.516 392.396 513.191 399.708 504.176 399.708C495.166 399.708 487.836 392.396 487.836 383.401C487.836 374.411 495.166 367.089 504.176 367.089C513.191 367.089 520.516 374.411 520.516 383.401Z" fill="#EADBCA"/>
<mask id="mask2_17_884" style="mask-type:luminance" maskUnits="userSpaceOnUse" x="770" y="398" width="37" height="44">
<path d="M770.94 398.667H806.682V441.333H770.94V398.667Z" fill="white"/>
</mask>
<g mask="url(#mask2_17_884)">
<path d="M806.682 441.318V399.573L772.103 420.448L806.682 441.318Z" fill="#EADBCA"/>
</g>
<path d="M653.24 370.271C653.24 375.552 657.545 379.844 662.83 379.844C668.12 379.844 672.419 375.552 672.419 370.271C672.419 364.995 668.12 360.703 662.83 360.703C657.545 360.703 653.24 364.995 653.24 370.271Z" fill="#EADBCA"/>
<path d="M715.439 457.49C715.439 452.208 711.135 447.922 705.85 447.922C700.56 447.922 696.261 452.208 696.261 457.49C696.261 462.766 700.56 467.057 705.85 467.057C711.135 467.057 715.439 462.76 715.439 457.49ZM702.282 457.49C702.282 455.526 703.878 453.927 705.85 453.927C707.817 453.927 709.419 455.526 709.419 457.49C709.419 459.453 707.817 461.052 705.85 461.052C703.878 461.052 702.282 459.448 702.282 457.49Z" fill="#EADBCA"/>
<mask id="mask3_17_884" style="mask-type:luminance" maskUnits="userSpaceOnUse" x="0" y="377" width="72" height="87">
<path d="M0 377.333H71.089V464H0V377.333Z" fill="white"/>
</mask>
<g mask="url(#mask3_17_884)">
<path d="M0 377.823V384.838L58.9904 420.448L0 456.047V463.068L70.6142 420.448L0 377.823Z" fill="#EADBCA"/>
</g>
<path d="M683.49 383.401C683.49 395.714 693.517 405.719 705.85 405.719C718.178 405.719 728.211 395.714 728.211 383.401C728.211 371.094 718.178 361.078 705.85 361.078C693.517 361.078 683.49 371.094 683.49 383.401ZM722.19 383.401C722.19 392.396 714.86 399.708 705.85 399.708C696.835 399.708 689.51 392.396 689.51 383.401C689.51 374.411 696.835 367.089 705.85 367.089C714.86 367.089 722.19 374.411 722.19 383.401Z" fill="#EADBCA"/>
<path d="M672.419 470.615C672.419 465.344 668.12 461.052 662.83 461.052C657.545 461.052 653.24 465.344 653.24 470.615C653.24 475.88 657.545 480.182 662.83 480.182C668.12 480.182 672.419 475.891 672.419 470.615Z" fill="#EADBCA"/>
<path d="M728.211 457.49C728.211 445.182 718.178 435.167 705.85 435.167C693.517 435.167 683.49 445.182 683.49 457.49C683.49 469.797 693.517 479.802 705.85 479.802C718.178 479.802 728.211 469.787 728.211 457.49ZM689.51 457.49C689.51 448.495 696.835 441.172 705.85 441.172C714.86 441.172 722.19 448.495 722.19 457.49C722.19 466.484 714.86 473.797 705.85 473.797C696.835 473.797 689.51 466.474 689.51 457.49Z" fill="#EADBCA"/>
<path d="M696.261 383.401C696.261 388.682 700.56 392.974 705.85 392.974C711.135 392.974 715.439 388.682 715.439 383.401C715.439 378.125 711.135 373.833 705.85 373.833C700.56 373.833 696.261 378.125 696.261 383.401ZM709.419 383.401C709.419 385.37 707.817 386.963 705.85 386.963C703.878 386.963 702.282 385.37 702.282 383.401C702.282 381.437 703.878 379.844 705.85 379.844C707.817 379.844 709.419 381.437 709.419 383.401Z" fill="#EADBCA"/>
<path d="M192.085 420.448C192.085 425.719 196.384 430.016 201.674 430.016C206.959 430.016 211.264 425.719 211.264 420.448C211.264 415.177 206.959 410.875 201.674 410.875C196.384 410.875 192.085 415.167 192.085 420.448ZM205.243 420.448C205.243 422.401 203.641 424.01 201.674 424.01C199.702 424.01 198.101 422.401 198.101 420.448C198.101 418.49 199.702 416.885 201.674 416.885C203.641 416.885 205.243 418.479 205.243 420.448Z" fill="#EADBCA"/>
<path d="M534.399 420.448L605.013 463.068L675.627 420.448L605.013 377.823L534.399 420.448ZM605.013 456.047L546.028 420.448L605.013 384.839L663.998 420.448L605.013 456.047Z" fill="#EADBCA"/>
<path d="M758.455 470.615C758.455 465.344 754.156 461.052 748.866 461.052C743.576 461.052 739.287 465.344 739.287 470.615C739.287 475.88 743.586 480.182 748.866 480.182C754.146 480.182 758.455 475.891 758.455 470.615Z" fill="#EADBCA"/>
<path d="M470.749 470.615C470.749 465.344 466.451 461.052 461.16 461.052C455.87 461.052 451.571 465.344 451.571 470.615C451.571 475.88 455.87 480.182 461.16 480.182C466.451 480.182 470.749 475.891 470.749 470.615Z" fill="#EADBCA"/>
<path d="M292.917 383.401C292.917 388.682 297.216 392.974 302.506 392.974C307.797 392.974 312.096 388.682 312.096 383.401C312.096 378.125 307.797 373.833 302.506 373.833C297.216 373.833 292.917 378.125 292.917 383.401ZM306.075 383.401C306.075 385.37 304.479 386.963 302.506 386.963C300.54 386.963 298.938 385.37 298.938 383.401C298.938 381.437 300.54 379.844 302.506 379.844C304.479 379.844 306.075 381.437 306.075 383.401Z" fill="#EADBCA"/>
<path d="M110.426 457.49C110.426 452.208 106.127 447.922 100.837 447.922C95.547 447.922 91.2481 452.208 91.2481 457.49C91.2481 462.766 95.547 467.057 100.837 467.057C106.127 467.057 110.426 462.76 110.426 457.49ZM97.2687 457.49C97.2687 455.526 98.8652 453.927 100.837 453.927C102.804 453.927 104.406 455.526 104.406 457.49C104.406 459.453 102.804 461.052 100.837 461.052C98.8652 461.052 97.2687 459.448 97.2687 457.49Z" fill="#EADBCA"/>
<path d="M67.4109 470.615C67.4109 465.344 63.1068 461.052 57.8218 461.052C52.5316 461.052 48.2326 465.344 48.2326 470.615C48.2326 475.88 52.5316 480.182 57.8218 480.182C63.1068 480.182 67.4109 475.891 67.4109 470.615Z" fill="#EADBCA"/>
<path d="M123.198 457.49C123.198 445.182 113.171 435.167 100.837 435.167C88.5039 435.167 78.4765 445.182 78.4765 457.49C78.4765 469.797 88.5039 479.802 100.837 479.802C113.171 479.802 123.198 469.787 123.198 457.49ZM84.4971 457.49C84.4971 448.495 91.822 441.172 100.837 441.172C109.847 441.172 117.177 448.495 117.177 457.49C117.177 466.484 109.847 473.797 100.837 473.797C91.822 473.797 84.4971 466.474 84.4971 457.49Z" fill="#EADBCA"/>
<path d="M355.111 470.615C355.111 465.344 350.812 461.052 345.527 461.052C340.237 461.052 335.943 465.344 335.943 470.615C335.943 475.88 340.242 480.182 345.527 480.182C350.807 480.182 355.111 475.891 355.111 470.615Z" fill="#EADBCA"/>
<path d="M91.2481 383.401C91.2481 388.682 95.547 392.974 100.837 392.974C106.127 392.974 110.426 388.682 110.426 383.401C110.426 378.125 106.127 373.833 100.837 373.833C95.547 373.833 91.2481 378.125 91.2481 383.401ZM104.406 383.401C104.406 385.37 102.804 386.963 100.837 386.963C98.8652 386.963 97.2687 385.37 97.2687 383.401C97.2687 381.437 98.8652 379.844 100.837 379.844C102.804 379.844 104.406 381.437 104.406 383.401Z" fill="#EADBCA"/>
<path d="M335.943 370.271C335.943 375.552 340.242 379.844 345.527 379.844C350.807 379.844 355.111 375.552 355.111 370.271C355.111 364.995 350.812 360.703 345.527 360.703C340.237 360.703 335.943 364.995 335.943 370.271Z" fill="#EADBCA"/>
<path d="M78.4765 383.401C78.4765 395.714 88.5039 405.719 100.837 405.719C113.171 405.719 123.198 395.714 123.198 383.401C123.198 371.094 113.171 361.078 100.837 361.078C88.5039 361.078 78.4765 371.094 78.4765 383.401ZM117.177 383.401C117.177 392.396 109.847 399.708 100.837 399.708C91.822 399.708 84.4971 392.396 84.4971 383.401C84.4971 374.411 91.822 367.089 100.837 367.089C109.847 367.089 117.177 374.411 117.177 383.401Z" fill="#EADBCA"/>
<path d="M134.264 370.271C134.264 375.552 138.573 379.844 143.853 379.844C149.133 379.844 153.442 375.552 153.442 370.271C153.442 364.995 149.143 360.703 143.853 360.703C138.563 360.703 134.264 364.995 134.264 370.271Z" fill="#EADBCA"/>
<path d="M324.867 457.49C324.867 445.182 314.84 435.167 302.506 435.167C290.173 435.167 280.146 445.182 280.146 457.49C280.146 469.797 290.173 479.802 302.506 479.802C314.84 479.802 324.867 469.787 324.867 457.49ZM286.166 457.49C286.166 448.495 293.496 441.172 302.506 441.172C311.522 441.172 318.847 448.495 318.847 457.49C318.847 466.484 311.522 473.797 302.506 473.797C293.496 473.797 286.166 466.474 286.166 457.49Z" fill="#EADBCA"/>
<path d="M153.442 470.615C153.442 465.344 149.143 461.052 143.853 461.052C138.563 461.052 134.264 465.344 134.264 470.615C134.264 475.88 138.573 480.182 143.853 480.182C149.133 480.182 153.442 475.891 153.442 470.615Z" fill="#EADBCA"/>
<path d="M494.587 383.401C494.587 388.682 498.891 392.974 504.176 392.974C509.466 392.974 513.765 388.682 513.765 383.401C513.765 378.125 509.466 373.833 504.176 373.833C498.891 373.833 494.587 378.125 494.587 383.401ZM507.744 383.401C507.744 385.37 506.148 386.963 504.176 386.963C502.209 386.963 500.607 385.37 500.607 383.401C500.607 381.437 502.209 379.844 504.176 379.844C506.148 379.844 507.744 381.437 507.744 383.401Z" fill="#EADBCA"/>
<path d="M537.607 370.271C537.607 375.552 541.917 379.844 547.196 379.844C552.476 379.844 556.786 375.552 556.786 370.271C556.786 364.995 552.487 360.703 547.196 360.703C541.906 360.703 537.607 364.995 537.607 370.271Z" fill="#EADBCA"/>
<path d="M513.765 457.49C513.765 452.208 509.466 447.922 504.176 447.922C498.891 447.922 494.587 452.208 494.587 457.49C494.587 462.766 498.891 467.057 504.176 467.057C509.466 467.057 513.765 462.76 513.765 457.49ZM500.607 457.49C500.607 455.526 502.209 453.927 504.176 453.927C506.148 453.927 507.744 455.526 507.744 457.49C507.744 459.453 506.148 461.052 504.176 461.052C502.209 461.052 500.607 459.448 500.607 457.49Z" fill="#EADBCA"/>
<mask id="mask4_17_884" style="mask-type:luminance" maskUnits="userSpaceOnUse" x="0" y="356" width="807" height="129">
<path d="M0 356.047H806.682V484.849H0V356.047Z" fill="white"/>
</mask>
<g mask="url(#mask4_17_884)">
<path d="M711.662 420.448L806.682 363.089V356.078L705.85 416.938L605.013 356.078L504.176 416.938L403.344 356.078L302.507 416.938L201.674 356.078L100.837 416.938L0 356.078V363.089L95.0253 420.448L0 477.797V484.818L100.837 423.958L201.674 484.818L302.507 423.958L403.344 484.818L504.176 423.958L605.013 484.818L705.85 423.958L806.682 484.818V477.797L711.662 420.448ZM201.674 477.797L106.649 420.448L201.674 363.089L296.695 420.448L201.674 477.797ZM403.344 477.797L308.318 420.448L403.344 363.089L498.364 420.448L403.344 477.797ZM605.013 477.797L509.993 420.448L605.013 363.089L700.033 420.448L605.013 477.797Z" fill="#EADBCA"/>
</g>
<path d="M280.146 383.401C280.146 395.714 290.173 405.719 302.506 405.719C314.84 405.719 324.867 395.714 324.867 383.401C324.867 371.094 314.84 361.078 302.506 361.078C290.173 361.078 280.146 371.094 280.146 383.401ZM318.847 383.401C318.847 392.396 311.522 399.708 302.506 399.708C293.496 399.708 286.166 392.396 286.166 383.401C286.166 374.411 293.496 367.089 302.506 367.089C311.522 367.089 318.847 374.411 318.847 383.401Z" fill="#EADBCA"/>
<path d="M48.2326 370.271C48.2326 375.552 52.5316 379.844 57.8218 379.844C63.1068 379.844 67.4109 375.552 67.4109 370.271C67.4109 364.995 63.1068 360.703 57.8218 360.703C52.5316 360.703 48.2326 364.995 48.2326 370.271Z" fill="#EADBCA"/>
<path d="M526.537 457.49C526.537 445.182 516.509 435.167 504.176 435.167C491.848 435.167 481.82 445.182 481.82 457.49C481.82 469.797 491.848 479.802 504.176 479.802C516.509 479.802 526.537 469.787 526.537 457.49ZM487.836 457.49C487.836 448.495 495.166 441.172 504.176 441.172C513.191 441.172 520.516 448.495 520.516 457.49C520.516 466.484 513.191 473.797 504.176 473.797C495.166 473.797 487.836 466.474 487.836 457.49Z" fill="#EADBCA"/>
<path d="M556.786 470.615C556.786 465.344 552.487 461.052 547.196 461.052C541.906 461.052 537.607 465.344 537.607 470.615C537.607 475.88 541.917 480.182 547.196 480.182C552.476 480.182 556.786 475.891 556.786 470.615Z" fill="#EADBCA"/>
<path d="M249.902 370.271C249.902 375.552 254.201 379.844 259.491 379.844C264.781 379.844 269.08 375.552 269.08 370.271C269.08 364.995 264.781 360.703 259.491 360.703C254.201 360.703 249.902 364.995 249.902 370.271Z" fill="#EADBCA"/>
<path d="M312.096 457.49C312.096 452.208 307.797 447.922 302.506 447.922C297.216 447.922 292.917 452.208 292.917 457.49C292.917 462.766 297.216 467.057 302.506 467.057C307.797 467.057 312.096 462.76 312.096 457.49ZM298.938 457.49C298.938 455.526 300.54 453.927 302.506 453.927C304.479 453.927 306.075 455.526 306.075 457.49C306.075 459.453 304.479 461.052 302.506 461.052C300.54 461.052 298.938 459.448 298.938 457.49Z" fill="#EADBCA"/>
<path d="M269.08 470.615C269.08 465.344 264.781 461.052 259.491 461.052C254.201 461.052 249.902 465.344 249.902 470.615C249.902 475.88 254.201 480.182 259.491 480.182C264.781 480.182 269.08 475.891 269.08 470.615Z" fill="#EADBCA"/>
<path d="M451.749 233.313C451.749 238.594 456.05 242.885 461.342 242.885C466.634 242.885 470.935 238.594 470.935 233.313C470.935 228.037 466.634 223.745 461.342 223.745C456.05 223.745 451.749 228.037 451.749 233.313Z" fill="#EADBCA"/>
<path d="M739.578 233.313C739.578 238.594 743.879 242.885 749.161 242.885C754.442 242.885 758.753 238.594 758.753 233.313C758.753 228.037 754.453 223.745 749.161 223.745C743.868 223.745 739.578 228.037 739.578 233.313Z" fill="#EADBCA"/>
<path d="M332.861 283.49L403.503 326.11L474.145 283.49L403.503 240.865L332.861 283.49ZM403.503 319.089L344.489 283.49L403.503 247.88L462.511 283.49L403.503 319.089Z" fill="#EADBCA"/>
<mask id="mask5_17_884" style="mask-type:luminance" maskUnits="userSpaceOnUse" x="0" y="261" width="36" height="45">
<path d="M0 261.333H35.4124V305.333H0V261.333Z" fill="white"/>
</mask>
<g mask="url(#mask5_17_884)">
<path d="M0 262.615V304.36L34.6034 283.49L0 262.615Z" fill="#EADBCA"/>
</g>
<path d="M368.904 283.49L403.503 304.36L438.106 283.49L403.503 262.615L368.904 283.49Z" fill="#EADBCA"/>
<mask id="mask6_17_884" style="mask-type:luminance" maskUnits="userSpaceOnUse" x="735" y="240" width="72" height="87">
<path d="M735.538 240H807V326.667H735.538V240Z" fill="white"/>
</mask>
<g mask="url(#mask6_17_884)">
<path d="M807 326.109V319.088L747.991 283.49L807 247.88V240.865L736.358 283.49L807 326.109Z" fill="#EADBCA"/>
</g>
<path d="M131.107 283.49L201.749 326.11L272.396 283.49L201.749 240.865L131.107 283.49ZM201.749 319.089L142.74 283.49L201.749 247.88L260.762 283.49L201.749 319.089Z" fill="#EADBCA"/>
<path d="M595.658 283.49C595.658 288.76 599.959 293.057 605.251 293.057C610.544 293.057 614.844 288.76 614.844 283.49C614.844 278.219 610.544 273.917 605.251 273.917C599.959 273.917 595.658 278.208 595.658 283.49ZM608.821 283.49C608.821 285.443 607.219 287.052 605.251 287.052C603.278 287.052 601.681 285.443 601.681 283.49C601.681 281.531 603.278 279.927 605.251 279.927C607.219 279.927 608.821 281.521 608.821 283.49Z" fill="#EADBCA"/>
<path d="M482.005 246.448C482.005 258.755 492.036 268.76 504.374 268.76C516.713 268.76 526.744 258.755 526.744 246.448C526.744 234.135 516.713 224.12 504.374 224.12C492.036 224.12 482.005 234.135 482.005 246.448ZM520.721 246.448C520.721 255.438 513.393 262.75 504.374 262.75C495.361 262.75 488.028 255.438 488.028 246.448C488.028 237.453 495.361 230.13 504.374 230.13C513.393 230.13 520.721 237.453 520.721 246.448Z" fill="#EADBCA"/>
<mask id="mask7_17_884" style="mask-type:luminance" maskUnits="userSpaceOnUse" x="771" y="261" width="36" height="45">
<path d="M771.614 261.333H807V305.333H771.614V261.333Z" fill="white"/>
</mask>
<g mask="url(#mask7_17_884)">
<path d="M807 304.36V262.615L772.407 283.49L807 304.36Z" fill="#EADBCA"/>
</g>
<path d="M653.498 233.313C653.498 238.594 657.798 242.885 663.091 242.885C668.383 242.885 672.684 238.594 672.684 233.313C672.684 228.037 668.383 223.745 663.091 223.745C657.798 223.745 653.498 228.037 653.498 233.313Z" fill="#EADBCA"/>
<path d="M715.721 320.531C715.721 315.255 711.415 310.964 706.128 310.964C700.836 310.964 696.535 315.255 696.535 320.531C696.535 325.807 700.836 330.099 706.128 330.099C711.415 330.099 715.721 325.802 715.721 320.531ZM702.553 320.531C702.553 318.568 704.155 316.969 706.128 316.969C708.096 316.969 709.698 318.568 709.698 320.531C709.698 322.495 708.096 324.094 706.128 324.094C704.155 324.094 702.553 322.49 702.553 320.531Z" fill="#EADBCA"/>
<mask id="mask8_17_884" style="mask-type:luminance" maskUnits="userSpaceOnUse" x="0" y="240" width="72" height="87">
<path d="M0 240H71.4876V326.667H0V240Z" fill="white"/>
</mask>
<g mask="url(#mask8_17_884)">
<path d="M0 240.865V247.88L59.0136 283.49L0 319.088V326.109L70.6421 283.49L0 240.865Z" fill="#EADBCA"/>
</g>
<path d="M683.759 246.448C683.759 258.755 693.79 268.76 706.128 268.76C718.461 268.76 728.492 258.755 728.492 246.448C728.492 234.135 718.461 224.12 706.128 224.12C693.79 224.12 683.759 234.135 683.759 246.448ZM722.475 246.448C722.475 255.438 715.142 262.75 706.128 262.75C697.109 262.75 689.782 255.438 689.782 246.448C689.782 237.453 697.109 230.13 706.128 230.13C715.142 230.13 722.475 237.453 722.475 246.448Z" fill="#EADBCA"/>
<path d="M672.684 333.656C672.684 328.385 668.383 324.094 663.091 324.094C657.798 324.094 653.498 328.385 653.498 333.656C653.498 338.922 657.798 343.224 663.091 343.224C668.383 343.224 672.684 338.932 672.684 333.656Z" fill="#EADBCA"/>
<path d="M728.492 320.531C728.492 308.224 718.461 298.208 706.128 298.208C693.79 298.208 683.759 308.224 683.759 320.531C683.759 332.839 693.79 342.844 706.128 342.844C718.461 342.844 728.492 332.828 728.492 320.531ZM689.782 320.531C689.782 311.537 697.109 304.214 706.128 304.214C715.142 304.214 722.475 311.537 722.475 320.531C722.475 329.526 715.142 336.839 706.128 336.839C697.109 336.839 689.782 329.516 689.782 320.531Z" fill="#EADBCA"/>
<path d="M696.535 246.448C696.535 251.724 700.836 256.016 706.128 256.016C711.415 256.016 715.721 251.724 715.721 246.448C715.721 241.167 711.415 236.875 706.128 236.875C700.836 236.875 696.535 241.167 696.535 246.448ZM709.698 246.448C709.698 248.411 708.096 250.005 706.128 250.005C704.155 250.005 702.553 248.411 702.553 246.448C702.553 244.479 704.155 242.885 706.128 242.885C708.096 242.885 709.698 244.479 709.698 246.448Z" fill="#EADBCA"/>
<path d="M192.156 283.49C192.156 288.76 196.462 293.057 201.749 293.057C207.041 293.057 211.342 288.76 211.342 283.49C211.342 278.219 207.041 273.917 201.749 273.917C196.462 273.917 192.156 278.208 192.156 283.49ZM205.324 283.49C205.324 285.443 203.722 287.052 201.749 287.052C199.781 287.052 198.179 285.443 198.179 283.49C198.179 281.531 199.781 279.927 201.749 279.927C203.722 279.927 205.324 281.521 205.324 283.49Z" fill="#EADBCA"/>
<path d="M534.609 283.49L605.251 326.11L675.893 283.49L605.251 240.865L534.609 283.49ZM605.251 319.089L546.243 283.49L605.251 247.88L664.26 283.49L605.251 319.089Z" fill="#EADBCA"/>
<path d="M758.753 333.656C758.753 328.385 754.453 324.094 749.161 324.094C743.868 324.094 739.578 328.385 739.578 333.656C739.578 338.922 743.879 343.224 749.161 343.224C754.442 343.224 758.753 338.932 758.753 333.656Z" fill="#EADBCA"/>
<path d="M470.935 333.656C470.935 328.385 466.634 324.094 461.342 324.094C456.05 324.094 451.749 328.385 451.749 333.656C451.749 338.922 456.05 343.224 461.342 343.224C466.634 343.224 470.935 338.932 470.935 333.656Z" fill="#EADBCA"/>
<path d="M293.033 246.448C293.033 251.724 297.333 256.016 302.626 256.016C307.918 256.016 312.219 251.724 312.219 246.448C312.219 241.167 307.918 236.875 302.626 236.875C297.333 236.875 293.033 241.167 293.033 246.448ZM306.196 246.448C306.196 248.411 304.598 250.005 302.626 250.005C300.658 250.005 299.056 248.411 299.056 246.448C299.056 244.479 300.658 242.885 302.626 242.885C304.598 242.885 306.196 244.479 306.196 246.448Z" fill="#EADBCA"/>
<path d="M110.47 320.531C110.47 315.255 106.169 310.964 100.877 310.964C95.5847 310.964 91.2841 315.255 91.2841 320.531C91.2841 325.807 95.5847 330.099 100.877 330.099C106.169 330.099 110.47 325.802 110.47 320.531ZM97.307 320.531C97.307 318.568 98.9041 316.969 100.877 316.969C102.845 316.969 104.447 318.568 104.447 320.531C104.447 322.495 102.845 324.094 100.877 324.094C98.9041 324.094 97.307 322.49 97.307 320.531Z" fill="#EADBCA"/>
<path d="M67.4323 333.656C67.4323 328.385 63.1316 324.094 57.8393 324.094C52.5523 324.094 48.2516 328.385 48.2516 333.656C48.2516 338.922 52.5523 343.224 57.8393 343.224C63.1316 343.224 67.4323 338.932 67.4323 333.656Z" fill="#EADBCA"/>
<path d="M123.247 320.531C123.247 308.224 113.215 298.208 100.877 298.208C88.5387 298.208 78.5074 308.224 78.5074 320.531C78.5074 332.839 88.5387 342.844 100.877 342.844C113.215 342.844 123.247 332.828 123.247 320.531ZM84.5304 320.531C84.5304 311.537 91.8582 304.214 100.877 304.214C109.891 304.214 117.224 311.537 117.224 320.531C117.224 329.526 109.891 336.839 100.877 336.839C91.8582 336.839 84.5304 329.516 84.5304 320.531Z" fill="#EADBCA"/>
<path d="M355.251 333.656C355.251 328.385 350.95 324.094 345.658 324.094C340.371 324.094 336.076 328.385 336.076 333.656C336.076 338.922 340.376 343.224 345.658 343.224C350.945 343.224 355.251 338.932 355.251 333.656Z" fill="#EADBCA"/>
<path d="M91.2841 246.448C91.2841 251.724 95.5847 256.016 100.877 256.016C106.169 256.016 110.47 251.724 110.47 246.448C110.47 241.167 106.169 236.875 100.877 236.875C95.5847 236.875 91.2841 241.167 91.2841 246.448ZM104.447 246.448C104.447 248.411 102.845 250.005 100.877 250.005C98.9041 250.005 97.307 248.411 97.307 246.448C97.307 244.479 98.9041 242.885 100.877 242.885C102.845 242.885 104.447 244.479 104.447 246.448Z" fill="#EADBCA"/>
<path d="M336.076 233.313C336.076 238.594 340.376 242.885 345.658 242.885C350.945 242.885 355.251 238.594 355.251 233.313C355.251 228.037 350.95 223.745 345.658 223.745C340.371 223.745 336.076 228.037 336.076 233.313Z" fill="#EADBCA"/>
<path d="M78.5074 246.448C78.5074 258.755 88.5387 268.76 100.877 268.76C113.215 268.76 123.247 258.755 123.247 246.448C123.247 234.135 113.215 224.12 100.877 224.12C88.5387 224.12 78.5074 234.135 78.5074 246.448ZM117.224 246.448C117.224 255.438 109.891 262.75 100.877 262.75C91.8582 262.75 84.5304 255.438 84.5304 246.448C84.5304 237.453 91.8582 230.13 100.877 230.13C109.891 230.13 117.224 237.453 117.224 246.448Z" fill="#EADBCA"/>
<path d="M134.316 233.313C134.316 238.594 138.628 242.885 143.909 242.885C149.191 242.885 153.502 238.594 153.502 233.313C153.502 228.037 149.202 223.745 143.909 223.745C138.617 223.745 134.316 228.037 134.316 233.313Z" fill="#EADBCA"/>
<path d="M324.995 320.531C324.995 308.224 314.964 298.208 302.626 298.208C290.287 298.208 280.256 308.224 280.256 320.531C280.256 332.839 290.287 342.844 302.626 342.844C314.964 342.844 324.995 332.828 324.995 320.531ZM286.279 320.531C286.279 311.537 293.612 304.214 302.626 304.214C311.644 304.214 318.972 311.537 318.972 320.531C318.972 329.526 311.644 336.839 302.626 336.839C293.612 336.839 286.279 329.516 286.279 320.531Z" fill="#EADBCA"/>
<path d="M153.502 333.656C153.502 328.385 149.202 324.094 143.909 324.094C138.617 324.094 134.316 328.385 134.316 333.656C134.316 338.922 138.628 343.224 143.909 343.224C149.191 343.224 153.502 338.932 153.502 333.656Z" fill="#EADBCA"/>
<path d="M494.781 246.448C494.781 251.724 499.087 256.016 504.374 256.016C509.667 256.016 513.967 251.724 513.967 246.448C513.967 241.167 509.667 236.875 504.374 236.875C499.087 236.875 494.781 241.167 494.781 246.448ZM507.944 246.448C507.944 248.411 506.347 250.005 504.374 250.005C502.407 250.005 500.804 248.411 500.804 246.448C500.804 244.479 502.407 242.885 504.374 242.885C506.347 242.885 507.944 244.479 507.944 246.448Z" fill="#EADBCA"/>
<path d="M537.819 233.313C537.819 238.594 542.13 242.885 547.412 242.885C552.694 242.885 557.005 238.594 557.005 233.313C557.005 228.037 552.699 223.745 547.412 223.745C542.12 223.745 537.819 228.037 537.819 233.313Z" fill="#EADBCA"/>
<path d="M513.967 320.531C513.967 315.255 509.667 310.964 504.374 310.964C499.087 310.964 494.781 315.255 494.781 320.531C494.781 325.807 499.087 330.099 504.374 330.099C509.667 330.099 513.967 325.802 513.967 320.531ZM500.804 320.531C500.804 318.568 502.407 316.969 504.374 316.969C506.347 316.969 507.944 318.568 507.944 320.531C507.944 322.495 506.347 324.094 504.374 324.094C502.407 324.094 500.804 322.49 500.804 320.531Z" fill="#EADBCA"/>
<mask id="mask9_17_884" style="mask-type:luminance" maskUnits="userSpaceOnUse" x="0" y="219" width="807" height="129">
<path d="M0 219.089H807V347.891H0V219.089Z" fill="white"/>
</mask>
<g mask="url(#mask9_17_884)">
<path d="M711.942 283.49L807 226.13V219.12L706.128 279.979L605.251 219.12L504.374 279.979L403.503 219.12L302.626 279.979L201.749 219.12L100.877 279.979L0 219.12V226.13L95.0627 283.49L0 340.839V347.859L100.877 287L201.749 347.859L302.626 287L403.503 347.859L504.374 287L605.251 347.859L706.128 287L807 347.859V340.839L711.942 283.49ZM201.749 340.839L106.691 283.49L201.749 226.13L296.811 283.49L201.749 340.839ZM403.503 340.839L308.44 283.49L403.503 226.13L498.56 283.49L403.503 340.839ZM605.251 340.839L510.194 283.49L605.251 226.13L700.309 283.49L605.251 340.839Z" fill="#EADBCA"/>
</g>
<path d="M280.256 246.448C280.256 258.755 290.287 268.76 302.626 268.76C314.964 268.76 324.995 258.755 324.995 246.448C324.995 234.135 314.964 224.12 302.626 224.12C290.287 224.12 280.256 234.135 280.256 246.448ZM318.972 246.448C318.972 255.438 311.644 262.75 302.626 262.75C293.612 262.75 286.279 255.438 286.279 246.448C286.279 237.453 293.612 230.13 302.626 230.13C311.644 230.13 318.972 237.453 318.972 246.448Z" fill="#EADBCA"/>
<path d="M48.2516 233.313C48.2516 238.594 52.5523 242.885 57.8393 242.885C63.1316 242.885 67.4323 238.594 67.4323 233.313C67.4323 228.037 63.1316 223.745 57.8393 223.745C52.5523 223.745 48.2516 228.037 48.2516 233.313Z" fill="#EADBCA"/>
<path d="M526.744 320.531C526.744 308.224 516.713 298.208 504.374 298.208C492.036 298.208 482.005 308.224 482.005 320.531C482.005 332.839 492.036 342.844 504.374 342.844C516.713 342.844 526.744 332.828 526.744 320.531ZM488.028 320.531C488.028 311.537 495.361 304.214 504.374 304.214C513.393 304.214 520.721 311.537 520.721 320.531C520.721 329.526 513.393 336.839 504.374 336.839C495.361 336.839 488.028 329.516 488.028 320.531Z" fill="#EADBCA"/>
<path d="M557.005 333.656C557.005 328.385 552.699 324.094 547.412 324.094C542.12 324.094 537.819 328.385 537.819 333.656C537.819 338.922 542.13 343.224 547.412 343.224C552.694 343.224 557.005 338.932 557.005 333.656Z" fill="#EADBCA"/>
<path d="M250 233.313C250 238.594 254.301 242.885 259.593 242.885C264.88 242.885 269.186 238.594 269.186 233.313C269.186 228.037 264.88 223.745 259.593 223.745C254.301 223.745 250 228.037 250 233.313Z" fill="#EADBCA"/>
<path d="M312.219 320.531C312.219 315.255 307.918 310.964 302.626 310.964C297.333 310.964 293.033 315.255 293.033 320.531C293.033 325.807 297.333 330.099 302.626 330.099C307.918 330.099 312.219 325.802 312.219 320.531ZM299.056 320.531C299.056 318.568 300.658 316.969 302.626 316.969C304.598 316.969 306.196 318.568 306.196 320.531C306.196 322.495 304.598 324.094 302.626 324.094C300.658 324.094 299.056 322.49 299.056 320.531Z" fill="#EADBCA"/>
<path d="M269.186 333.656C269.186 328.385 264.886 324.094 259.593 324.094C254.301 324.094 250 328.385 250 333.656C250 338.922 254.301 343.224 259.593 343.224C264.886 343.224 269.186 338.932 269.186 333.656Z" fill="#EADBCA"/>
<path d="M451.571 96.224C451.571 101.505 455.87 105.797 461.16 105.797C466.451 105.797 470.749 101.505 470.749 96.224C470.749 90.9479 466.451 86.6562 461.16 86.6562C455.87 86.6562 451.571 90.9479 451.571 96.224Z" fill="#EADBCA"/>
<path d="M739.287 96.224C739.287 101.505 743.586 105.797 748.866 105.797C754.146 105.797 758.455 101.505 758.455 96.224C758.455 90.9479 754.156 86.6562 748.866 86.6562C743.576 86.6562 739.287 90.9479 739.287 96.224Z" fill="#EADBCA"/>
<path d="M332.73 146.401L403.344 189.021L473.958 146.401L403.344 103.781L332.73 146.401ZM403.344 182L344.353 146.401L403.344 110.792L462.329 146.401L403.344 182Z" fill="#EADBCA"/>
<mask id="mask10_17_884" style="mask-type:luminance" maskUnits="userSpaceOnUse" x="0" y="125" width="36" height="44">
<path d="M0 125.469H35.028V168.135H0V125.469Z" fill="white"/>
</mask>
<g mask="url(#mask10_17_884)">
<path d="M0 125.526V167.276L34.5898 146.401L0 125.526Z" fill="#EADBCA"/>
</g>
<path d="M368.764 146.401L403.344 167.276L437.933 146.401L403.344 125.526L368.764 146.401Z" fill="#EADBCA"/>
<mask id="mask11_17_884" style="mask-type:luminance" maskUnits="userSpaceOnUse" x="734" y="102" width="73" height="88">
<path d="M734.879 102.802H806.682V189.469H734.879V102.802Z" fill="white"/>
</mask>
<g mask="url(#mask11_17_884)">
<path d="M806.682 189.021V182L747.697 146.401L806.682 110.792V103.781L736.068 146.401L806.682 189.021Z" fill="#EADBCA"/>
</g>
<path d="M131.055 146.401L201.675 189.021L272.289 146.401L201.675 103.781L131.055 146.401ZM201.675 182L142.684 146.401L201.675 110.792L260.66 146.401L201.675 182Z" fill="#EADBCA"/>
<path d="M595.424 146.401C595.424 151.672 599.723 155.969 605.013 155.969C610.303 155.969 614.602 151.672 614.602 146.401C614.602 141.13 610.303 136.833 605.013 136.833C599.723 136.833 595.424 141.12 595.424 146.401ZM608.582 146.401C608.582 148.359 606.985 149.963 605.013 149.963C603.046 149.963 601.444 148.359 601.444 146.401C601.444 144.443 603.046 142.838 605.013 142.838C606.985 142.838 608.582 144.437 608.582 146.401Z" fill="#EADBCA"/>
<path d="M481.82 109.359C481.82 121.667 491.848 131.672 504.176 131.672C516.509 131.672 526.537 121.667 526.537 109.359C526.537 97.052 516.509 87.0364 504.176 87.0364C491.848 87.0364 481.82 97.052 481.82 109.359ZM520.516 109.359C520.516 118.354 513.191 125.667 504.176 125.667C495.166 125.667 487.836 118.354 487.836 109.359C487.836 100.365 495.166 93.0416 504.176 93.0416C513.191 93.0416 520.516 100.365 520.516 109.359Z" fill="#EADBCA"/>
<mask id="mask12_17_884" style="mask-type:luminance" maskUnits="userSpaceOnUse" x="770" y="125" width="37" height="44">
<path d="M770.94 125.469H806.682V168.135H770.94V125.469Z" fill="white"/>
</mask>
<g mask="url(#mask12_17_884)">
<path d="M806.682 167.276V125.526L772.103 146.401L806.682 167.276Z" fill="#EADBCA"/>
</g>
<path d="M653.24 96.224C653.24 101.505 657.545 105.797 662.83 105.797C668.12 105.797 672.419 101.505 672.419 96.224C672.419 90.9479 668.12 86.6562 662.83 86.6562C657.545 86.6562 653.24 90.9479 653.24 96.224Z" fill="#EADBCA"/>
<path d="M715.439 183.443C715.439 178.167 711.135 173.875 705.85 173.875C700.56 173.875 696.261 178.167 696.261 183.443C696.261 188.724 700.56 193.01 705.85 193.01C711.135 193.01 715.439 188.714 715.439 183.443ZM702.282 183.443C702.282 181.479 703.878 179.88 705.85 179.88C707.817 179.88 709.419 181.479 709.419 183.443C709.419 185.406 707.817 187.005 705.85 187.005C703.878 187.005 702.282 185.401 702.282 183.443Z" fill="#EADBCA"/>
<mask id="mask13_17_884" style="mask-type:luminance" maskUnits="userSpaceOnUse" x="0" y="102" width="72" height="88">
<path d="M0 102.802H71.089V189.469H0V102.802Z" fill="white"/>
</mask>
<g mask="url(#mask13_17_884)">
<path d="M0 103.781V110.792L58.9904 146.401L0 182V189.021L70.6142 146.401L0 103.781Z" fill="#EADBCA"/>
</g>
<path d="M683.49 109.359C683.49 121.667 693.517 131.672 705.85 131.672C718.178 131.672 728.211 121.667 728.211 109.359C728.211 97.052 718.178 87.0364 705.85 87.0364C693.517 87.0364 683.49 97.052 683.49 109.359ZM722.19 109.359C722.19 118.354 714.86 125.667 705.85 125.667C696.835 125.667 689.51 118.354 689.51 109.359C689.51 100.365 696.835 93.0416 705.85 93.0416C714.86 93.0416 722.19 100.365 722.19 109.359Z" fill="#EADBCA"/>
<path d="M672.419 196.568C672.419 191.297 668.12 187.005 662.83 187.005C657.545 187.005 653.24 191.297 653.24 196.568C653.24 201.838 657.545 206.135 662.83 206.135C668.12 206.135 672.419 201.844 672.419 196.568Z" fill="#EADBCA"/>
<path d="M728.211 183.443C728.211 171.135 718.178 161.12 705.85 161.12C693.517 161.12 683.49 171.135 683.49 183.443C683.49 195.75 693.517 205.76 705.85 205.76C718.178 205.76 728.211 195.745 728.211 183.443ZM689.51 183.443C689.51 174.448 696.835 167.13 705.85 167.13C714.86 167.13 722.19 174.448 722.19 183.443C722.19 192.438 714.86 199.75 705.85 199.75C696.835 199.75 689.51 192.427 689.51 183.443Z" fill="#EADBCA"/>
<path d="M696.261 109.359C696.261 114.635 700.56 118.927 705.85 118.927C711.135 118.927 715.439 114.635 715.439 109.359C715.439 104.078 711.135 99.7864 705.85 99.7864C700.56 99.7864 696.261 104.078 696.261 109.359ZM709.419 109.359C709.419 111.323 707.817 112.922 705.85 112.922C703.878 112.922 702.282 111.323 702.282 109.359C702.282 107.391 703.878 105.797 705.85 105.797C707.817 105.797 709.419 107.391 709.419 109.359Z" fill="#EADBCA"/>
<path d="M192.085 146.401C192.085 151.672 196.384 155.969 201.674 155.969C206.959 155.969 211.264 151.672 211.264 146.401C211.264 141.13 206.959 136.833 201.674 136.833C196.384 136.833 192.085 141.12 192.085 146.401ZM205.243 146.401C205.243 148.359 203.641 149.963 201.674 149.963C199.702 149.963 198.101 148.359 198.101 146.401C198.101 144.443 199.702 142.838 201.674 142.838C203.641 142.838 205.243 144.437 205.243 146.401Z" fill="#EADBCA"/>
<path d="M534.399 146.401L605.013 189.021L675.627 146.401L605.013 103.781L534.399 146.401ZM605.013 182L546.028 146.401L605.013 110.792L663.998 146.401L605.013 182Z" fill="#EADBCA"/>
<path d="M758.455 196.568C758.455 191.297 754.156 187.005 748.866 187.005C743.576 187.005 739.287 191.297 739.287 196.568C739.287 201.838 743.586 206.135 748.866 206.135C754.146 206.135 758.455 201.844 758.455 196.568Z" fill="#EADBCA"/>
<path d="M470.749 196.568C470.749 191.297 466.451 187.005 461.16 187.005C455.87 187.005 451.571 191.297 451.571 196.568C451.571 201.838 455.87 206.135 461.16 206.135C466.451 206.135 470.749 201.844 470.749 196.568Z" fill="#EADBCA"/>
<path d="M292.917 109.359C292.917 114.635 297.216 118.927 302.506 118.927C307.797 118.927 312.096 114.635 312.096 109.359C312.096 104.078 307.797 99.7864 302.506 99.7864C297.216 99.7864 292.917 104.078 292.917 109.359ZM306.075 109.359C306.075 111.323 304.479 112.922 302.506 112.922C300.54 112.922 298.938 111.323 298.938 109.359C298.938 107.391 300.54 105.797 302.506 105.797C304.479 105.797 306.075 107.391 306.075 109.359Z" fill="#EADBCA"/>
<path d="M110.426 183.443C110.426 178.167 106.127 173.875 100.837 173.875C95.547 173.875 91.2481 178.167 91.2481 183.443C91.2481 188.724 95.547 193.01 100.837 193.01C106.127 193.01 110.426 188.714 110.426 183.443ZM97.2687 183.443C97.2687 181.479 98.8652 179.88 100.837 179.88C102.804 179.88 104.406 181.479 104.406 183.443C104.406 185.406 102.804 187.005 100.837 187.005C98.8652 187.005 97.2687 185.401 97.2687 183.443Z" fill="#EADBCA"/>
<path d="M67.4109 196.568C67.4109 191.297 63.1068 187.005 57.8218 187.005C52.5316 187.005 48.2326 191.297 48.2326 196.568C48.2326 201.838 52.5316 206.135 57.8218 206.135C63.1068 206.135 67.4109 201.844 67.4109 196.568Z" fill="#EADBCA"/>
<path d="M123.198 183.443C123.198 171.135 113.171 161.12 100.837 161.12C88.5039 161.12 78.4765 171.135 78.4765 183.443C78.4765 195.75 88.5039 205.76 100.837 205.76C113.171 205.76 123.198 195.745 123.198 183.443ZM84.4971 183.443C84.4971 174.448 91.822 167.13 100.837 167.13C109.847 167.13 117.177 174.448 117.177 183.443C117.177 192.438 109.847 199.75 100.837 199.75C91.822 199.75 84.4971 192.427 84.4971 183.443Z" fill="#EADBCA"/>
<path d="M355.111 196.568C355.111 191.297 350.812 187.005 345.527 187.005C340.237 187.005 335.943 191.297 335.943 196.568C335.943 201.838 340.242 206.135 345.527 206.135C350.807 206.135 355.111 201.844 355.111 196.568Z" fill="#EADBCA"/>
<path d="M91.2481 109.359C91.2481 114.635 95.547 118.927 100.837 118.927C106.127 118.927 110.426 114.635 110.426 109.359C110.426 104.078 106.127 99.7864 100.837 99.7864C95.547 99.7864 91.2481 104.078 91.2481 109.359ZM104.406 109.359C104.406 111.323 102.804 112.922 100.837 112.922C98.8652 112.922 97.2687 111.323 97.2687 109.359C97.2687 107.391 98.8652 105.797 100.837 105.797C102.804 105.797 104.406 107.391 104.406 109.359Z" fill="#EADBCA"/>
<path d="M335.943 96.224C335.943 101.505 340.242 105.797 345.527 105.797C350.807 105.797 355.111 101.505 355.111 96.224C355.111 90.9479 350.812 86.6562 345.527 86.6562C340.237 86.6562 335.943 90.9479 335.943 96.224Z" fill="#EADBCA"/>
<path d="M78.4765 109.359C78.4765 121.667 88.5039 131.672 100.837 131.672C113.171 131.672 123.198 121.667 123.198 109.359C123.198 97.052 113.171 87.0364 100.837 87.0364C88.5039 87.0364 78.4765 97.052 78.4765 109.359ZM117.177 109.359C117.177 118.354 109.847 125.667 100.837 125.667C91.822 125.667 84.4971 118.354 84.4971 109.359C84.4971 100.365 91.822 93.0416 100.837 93.0416C109.847 93.0416 117.177 100.365 117.177 109.359Z" fill="#EADBCA"/>
<path d="M134.264 96.224C134.264 101.505 138.573 105.797 143.853 105.797C149.133 105.797 153.442 101.505 153.442 96.224C153.442 90.9479 149.143 86.6562 143.853 86.6562C138.563 86.6562 134.264 90.9479 134.264 96.224Z" fill="#EADBCA"/>
<path d="M324.867 183.443C324.867 171.135 314.84 161.12 302.506 161.12C290.173 161.12 280.146 171.135 280.146 183.443C280.146 195.75 290.173 205.76 302.506 205.76C314.84 205.76 324.867 195.745 324.867 183.443ZM286.166 183.443C286.166 174.448 293.496 167.13 302.506 167.13C311.522 167.13 318.847 174.448 318.847 183.443C318.847 192.438 311.522 199.75 302.506 199.75C293.496 199.75 286.166 192.427 286.166 183.443Z" fill="#EADBCA"/>
<path d="M153.442 196.568C153.442 191.297 149.143 187.005 143.853 187.005C138.563 187.005 134.264 191.297 134.264 196.568C134.264 201.838 138.573 206.135 143.853 206.135C149.133 206.135 153.442 201.844 153.442 196.568Z" fill="#EADBCA"/>
<path d="M494.587 109.359C494.587 114.635 498.891 118.927 504.176 118.927C509.466 118.927 513.765 114.635 513.765 109.359C513.765 104.078 509.466 99.7864 504.176 99.7864C498.891 99.7864 494.587 104.078 494.587 109.359ZM507.744 109.359C507.744 111.323 506.148 112.922 504.176 112.922C502.209 112.922 500.607 111.323 500.607 109.359C500.607 107.391 502.209 105.797 504.176 105.797C506.148 105.797 507.744 107.391 507.744 109.359Z" fill="#EADBCA"/>
<path d="M537.607 96.224C537.607 101.505 541.917 105.797 547.196 105.797C552.476 105.797 556.786 101.505 556.786 96.224C556.786 90.9479 552.487 86.6562 547.196 86.6562C541.906 86.6562 537.607 90.9479 537.607 96.224Z" fill="#EADBCA"/>
<path d="M513.765 183.443C513.765 178.167 509.466 173.875 504.176 173.875C498.891 173.875 494.587 178.167 494.587 183.443C494.587 188.724 498.891 193.01 504.176 193.01C509.466 193.01 513.765 188.714 513.765 183.443ZM500.607 183.443C500.607 181.479 502.209 179.88 504.176 179.88C506.148 179.88 507.744 181.479 507.744 183.443C507.744 185.406 506.148 187.005 504.176 187.005C502.209 187.005 500.607 185.401 500.607 183.443Z" fill="#EADBCA"/>
<mask id="mask14_17_884" style="mask-type:luminance" maskUnits="userSpaceOnUse" x="0" y="82" width="807" height="129">
<path d="M0 82H806.682V210.802H0V82Z" fill="white"/>
</mask>
<g mask="url(#mask14_17_884)">
<path d="M711.662 146.401L806.682 89.0417V82.0312L705.85 142.891L605.013 82.0312L504.176 142.891L403.344 82.0312L302.507 142.891L201.674 82.0312L100.837 142.891L0 82.0312V89.0417L95.0253 146.401L0 203.75V210.771L100.837 149.911L201.674 210.771L302.507 149.911L403.344 210.771L504.176 149.911L605.013 210.771L705.85 149.911L806.682 210.771V203.75L711.662 146.401ZM201.674 203.75L106.649 146.401L201.674 89.0417L296.695 146.401L201.674 203.75ZM403.344 203.75L308.318 146.401L403.344 89.0417L498.364 146.401L403.344 203.75ZM605.013 203.75L509.993 146.401L605.013 89.0417L700.033 146.401L605.013 203.75Z" fill="#EADBCA"/>
</g>
<path d="M280.146 109.359C280.146 121.667 290.173 131.672 302.506 131.672C314.84 131.672 324.867 121.667 324.867 109.359C324.867 97.052 314.84 87.0364 302.506 87.0364C290.173 87.0364 280.146 97.052 280.146 109.359ZM318.847 109.359C318.847 118.354 311.522 125.667 302.506 125.667C293.496 125.667 286.166 118.354 286.166 109.359C286.166 100.365 293.496 93.0416 302.506 93.0416C311.522 93.0416 318.847 100.365 318.847 109.359Z" fill="#EADBCA"/>
<path d="M48.2326 96.224C48.2326 101.505 52.5316 105.797 57.8218 105.797C63.1068 105.797 67.4109 101.505 67.4109 96.224C67.4109 90.9479 63.1068 86.6562 57.8218 86.6562C52.5316 86.6562 48.2326 90.9479 48.2326 96.224Z" fill="#EADBCA"/>
<path d="M526.537 183.443C526.537 171.135 516.509 161.12 504.176 161.12C491.848 161.12 481.82 171.135 481.82 183.443C481.82 195.75 491.848 205.76 504.176 205.76C516.509 205.76 526.537 195.745 526.537 183.443ZM487.836 183.443C487.836 174.448 495.166 167.13 504.176 167.13C513.191 167.13 520.516 174.448 520.516 183.443C520.516 192.438 513.191 199.75 504.176 199.75C495.166 199.75 487.836 192.427 487.836 183.443Z" fill="#EADBCA"/>
<path d="M556.786 196.568C556.786 191.297 552.487 187.005 547.196 187.005C541.906 187.005 537.607 191.297 537.607 196.568C537.607 201.838 541.917 206.135 547.196 206.135C552.476 206.135 556.786 201.844 556.786 196.568Z" fill="#EADBCA"/>
<path d="M249.902 96.224C249.902 101.505 254.201 105.797 259.491 105.797C264.781 105.797 269.08 101.505 269.08 96.224C269.08 90.9479 264.781 86.6562 259.491 86.6562C254.201 86.6562 249.902 90.9479 249.902 96.224Z" fill="#EADBCA"/>
<path d="M312.096 183.443C312.096 178.167 307.797 173.875 302.506 173.875C297.216 173.875 292.917 178.167 292.917 183.443C292.917 188.724 297.216 193.01 302.506 193.01C307.797 193.01 312.096 188.714 312.096 183.443ZM298.938 183.443C298.938 181.479 300.54 179.88 302.506 179.88C304.479 179.88 306.075 181.479 306.075 183.443C306.075 185.406 304.479 187.005 302.506 187.005C300.54 187.005 298.938 185.401 298.938 183.443Z" fill="#EADBCA"/>
<path d="M269.08 196.568C269.08 191.297 264.781 187.005 259.491 187.005C254.201 187.005 249.902 191.297 249.902 196.568C249.902 201.838 254.201 206.135 259.491 206.135C264.781 206.135 269.08 201.844 269.08 196.568Z" fill="#EADBCA"/>
<path d="M332.861 9.40104L403.503 52.0208L474.145 9.40104L403.503 -33.2188L332.861 9.40104ZM403.503 45L344.489 9.40104L403.503 -26.2083L462.511 9.40104L403.503 45Z" fill="#EADBCA"/>
<mask id="mask15_17_884" style="mask-type:luminance" maskUnits="userSpaceOnUse" x="0" y="-12" width="36" height="44">
<path d="M0 -11.5312H35.0418V31.1354H0V-11.5312Z" fill="white"/>
</mask>
<g mask="url(#mask15_17_884)">
<path d="M0 -11.4739V30.2761L34.6034 9.40112L0 -11.4739Z" fill="#EADBCA"/>
</g>
<path d="M368.91 9.40112L403.503 30.2761L438.106 9.40112L403.503 -11.4739L368.91 9.40112Z" fill="#EADBCA"/>
<mask id="mask16_17_884" style="mask-type:luminance" maskUnits="userSpaceOnUse" x="735" y="-35" width="72" height="88">
<path d="M735.168 -34.198H807V52.4687H735.168V-34.198Z" fill="white"/>
</mask>
<g mask="url(#mask16_17_884)">
<path d="M807 52.0208V45L747.992 9.40104L807 -26.2083V-33.2188L736.358 9.40104L807 52.0208Z" fill="#EADBCA"/>
</g>
<path d="M131.107 9.40104L201.754 52.0208L272.396 9.40104L201.754 -33.2188L131.107 9.40104ZM201.754 45L142.74 9.40104L201.754 -26.2083L260.762 9.40104L201.754 45Z" fill="#EADBCA"/>
<path d="M595.658 9.40096C595.658 14.6718 599.959 18.9687 605.251 18.9687C610.544 18.9687 614.844 14.6718 614.844 9.40096C614.844 4.13013 610.544 -0.166748 605.251 -0.166748C599.959 -0.166748 595.658 4.11971 595.658 9.40096ZM608.821 9.40096C608.821 11.3593 607.224 12.9635 605.251 12.9635C603.284 12.9635 601.681 11.3593 601.681 9.40096C601.681 7.44263 603.284 5.83846 605.251 5.83846C607.224 5.83846 608.821 7.43742 608.821 9.40096Z" fill="#EADBCA"/>
<mask id="mask17_17_884" style="mask-type:luminance" maskUnits="userSpaceOnUse" x="771" y="-12" width="36" height="44">
<path d="M771.243 -11.5312H807V31.1354H771.243V-11.5312Z" fill="white"/>
</mask>
<g mask="url(#mask17_17_884)">
<path d="M807 30.2761V-11.4739L772.407 9.40112L807 30.2761Z" fill="#EADBCA"/>
</g>
<path d="M715.721 46.4427C715.721 41.1667 711.415 36.875 706.128 36.875C700.836 36.875 696.535 41.1667 696.535 46.4427C696.535 51.724 700.836 56.0104 706.128 56.0104C711.415 56.0104 715.721 51.7135 715.721 46.4427ZM702.558 46.4427C702.558 44.4792 704.155 42.8802 706.128 42.8802C708.096 42.8802 709.698 44.4792 709.698 46.4427C709.698 48.4063 708.096 50.0052 706.128 50.0052C704.155 50.0052 702.558 48.401 702.558 46.4427Z" fill="#EADBCA"/>
<mask id="mask18_17_884" style="mask-type:luminance" maskUnits="userSpaceOnUse" x="0" y="-35" width="72" height="88">
<path d="M0 -34.198H71.117V52.4687H0V-34.198Z" fill="white"/>
</mask>
<g mask="url(#mask18_17_884)">
<path d="M0 -33.2188V-26.2083L59.0136 9.40104L0 45V52.0208L70.6421 9.40104L0 -33.2188Z" fill="#EADBCA"/>
</g>
<path d="M672.684 59.5676C672.684 54.2968 668.383 50.0051 663.091 50.0051C657.804 50.0051 653.498 54.2968 653.498 59.5676C653.498 64.8385 657.804 69.1353 663.091 69.1353C668.383 69.1353 672.684 64.8437 672.684 59.5676Z" fill="#EADBCA"/>
<path d="M728.498 46.4428C728.498 34.1355 718.461 24.1199 706.128 24.1199C693.79 24.1199 683.759 34.1355 683.759 46.4428C683.759 58.7501 693.79 68.7605 706.128 68.7605C718.461 68.7605 728.498 58.7449 728.498 46.4428ZM689.782 46.4428C689.782 37.448 697.109 30.1303 706.128 30.1303C715.142 30.1303 722.475 37.448 722.475 46.4428C722.475 55.4376 715.142 62.7501 706.128 62.7501C697.109 62.7501 689.782 55.4272 689.782 46.4428Z" fill="#EADBCA"/>
<path d="M192.161 9.40096C192.161 14.6718 196.462 18.9687 201.754 18.9687C207.041 18.9687 211.347 14.6718 211.347 9.40096C211.347 4.13013 207.041 -0.166748 201.754 -0.166748C196.462 -0.166748 192.161 4.11971 192.161 9.40096ZM205.324 9.40096C205.324 11.3593 203.722 12.9635 201.754 12.9635C199.781 12.9635 198.179 11.3593 198.179 9.40096C198.179 7.44263 199.781 5.83846 201.754 5.83846C203.722 5.83846 205.324 7.43742 205.324 9.40096Z" fill="#EADBCA"/>
<path d="M534.609 9.40104L605.251 52.0208L675.893 9.40104L605.251 -33.2188L534.609 9.40104ZM605.251 45L546.243 9.40104L605.251 -26.2083L664.26 9.40104L605.251 45Z" fill="#EADBCA"/>
<path d="M758.754 59.5676C758.754 54.2968 754.453 50.0051 749.161 50.0051C743.868 50.0051 739.578 54.2968 739.578 59.5676C739.578 64.8385 743.879 69.1353 749.161 69.1353C754.443 69.1353 758.754 64.8437 758.754 59.5676Z" fill="#EADBCA"/>
<path d="M470.935 59.5676C470.935 54.2968 466.634 50.0051 461.342 50.0051C456.05 50.0051 451.749 54.2968 451.749 59.5676C451.749 64.8385 456.05 69.1353 461.342 69.1353C466.634 69.1353 470.935 64.8437 470.935 59.5676Z" fill="#EADBCA"/>
<path d="M110.47 46.4427C110.47 41.1667 106.169 36.875 100.877 36.875C95.5847 36.875 91.284 41.1667 91.284 46.4427C91.284 51.724 95.5847 56.0104 100.877 56.0104C106.169 56.0104 110.47 51.7135 110.47 46.4427ZM97.307 46.4427C97.307 44.4792 98.9041 42.8802 100.877 42.8802C102.845 42.8802 104.447 44.4792 104.447 46.4427C104.447 48.4063 102.845 50.0052 100.877 50.0052C98.9041 50.0052 97.307 48.401 97.307 46.4427Z" fill="#EADBCA"/>
<path d="M67.4374 59.5676C67.4374 54.2968 63.1316 50.0051 57.8445 50.0051C52.5523 50.0051 48.2516 54.2968 48.2516 59.5676C48.2516 64.8385 52.5523 69.1353 57.8445 69.1353C63.1316 69.1353 67.4374 64.8437 67.4374 59.5676Z" fill="#EADBCA"/>
<path d="M123.247 46.4428C123.247 34.1355 113.215 24.1199 100.877 24.1199C88.5387 24.1199 78.5074 34.1355 78.5074 46.4428C78.5074 58.7501 88.5387 68.7605 100.877 68.7605C113.215 68.7605 123.247 58.7449 123.247 46.4428ZM84.5304 46.4428C84.5304 37.448 91.8582 30.1303 100.877 30.1303C109.891 30.1303 117.224 37.448 117.224 46.4428C117.224 55.4376 109.891 62.7501 100.877 62.7501C91.8582 62.7501 84.5304 55.4272 84.5304 46.4428Z" fill="#EADBCA"/>
<path d="M355.251 59.5676C355.251 54.2968 350.95 50.0051 345.663 50.0051C340.371 50.0051 336.076 54.2968 336.076 59.5676C336.076 64.8385 340.376 69.1353 345.663 69.1353C350.945 69.1353 355.251 64.8437 355.251 59.5676Z" fill="#EADBCA"/>
<path d="M324.995 46.4428C324.995 34.1355 314.964 24.1199 302.626 24.1199C290.287 24.1199 280.256 34.1355 280.256 46.4428C280.256 58.7501 290.287 68.7605 302.626 68.7605C314.964 68.7605 324.995 58.7449 324.995 46.4428ZM286.279 46.4428C286.279 37.448 293.612 30.1303 302.626 30.1303C311.644 30.1303 318.972 37.448 318.972 46.4428C318.972 55.4376 311.644 62.7501 302.626 62.7501C293.612 62.7501 286.279 55.4272 286.279 46.4428Z" fill="#EADBCA"/>
<path d="M153.502 59.5676C153.502 54.2968 149.202 50.0051 143.909 50.0051C138.617 50.0051 134.316 54.2968 134.316 59.5676C134.316 64.8385 138.628 69.1353 143.909 69.1353C149.191 69.1353 153.502 64.8437 153.502 59.5676Z" fill="#EADBCA"/>
<path d="M513.967 46.4427C513.967 41.1667 509.667 36.875 504.374 36.875C499.087 36.875 494.781 41.1667 494.781 46.4427C494.781 51.724 499.087 56.0104 504.374 56.0104C509.667 56.0104 513.967 51.7135 513.967 46.4427ZM500.804 46.4427C500.804 44.4792 502.407 42.8802 504.374 42.8802C506.347 42.8802 507.944 44.4792 507.944 46.4427C507.944 48.4063 506.347 50.0052 504.374 50.0052C502.407 50.0052 500.804 48.401 500.804 46.4427Z" fill="#EADBCA"/>
<mask id="mask19_17_884" style="mask-type:luminance" maskUnits="userSpaceOnUse" x="0" y="-55" width="807" height="129">
<path d="M0 -55H807V73.8021H0V-55Z" fill="white"/>
</mask>
<g mask="url(#mask19_17_884)">
<path d="M711.942 9.40105L807 -47.9583V-54.9688L706.128 5.89063L605.251 -54.9688L504.374 5.89063L403.503 -54.9688L302.626 5.89063L201.754 -54.9688L100.877 5.89063L0 -54.9688V-47.9583L95.0627 9.40105L0 66.75V73.7708L100.877 12.9115L201.754 73.7708L302.626 12.9115L403.503 73.7708L504.374 12.9115L605.251 73.7708L706.128 12.9115L807 73.7708V66.75L711.942 9.40105ZM201.754 66.75L106.691 9.40105L201.754 -47.9583L296.811 9.40105L201.754 66.75ZM403.503 66.75L308.44 9.40105L403.503 -47.9583L498.56 9.40105L403.503 66.75ZM605.251 66.75L510.194 9.40105L605.251 -47.9583L700.309 9.40105L605.251 66.75Z" fill="#EADBCA"/>
</g>
<path d="M526.744 46.4428C526.744 34.1355 516.713 24.1199 504.374 24.1199C492.041 24.1199 482.01 34.1355 482.01 46.4428C482.01 58.7501 492.041 68.7605 504.374 68.7605C516.713 68.7605 526.744 58.7449 526.744 46.4428ZM488.028 46.4428C488.028 37.448 495.361 30.1303 504.374 30.1303C513.393 30.1303 520.721 37.448 520.721 46.4428C520.721 55.4376 513.393 62.7501 504.374 62.7501C495.361 62.7501 488.028 55.4272 488.028 46.4428Z" fill="#EADBCA"/>
<path d="M557.005 59.5676C557.005 54.2968 552.704 50.0051 547.412 50.0051C542.12 50.0051 537.819 54.2968 537.819 59.5676C537.819 64.8385 542.13 69.1353 547.412 69.1353C552.694 69.1353 557.005 64.8437 557.005 59.5676Z" fill="#EADBCA"/>
<path d="M312.219 46.4427C312.219 41.1667 307.918 36.875 302.626 36.875C297.333 36.875 293.033 41.1667 293.033 46.4427C293.033 51.724 297.333 56.0104 302.626 56.0104C307.918 56.0104 312.219 51.7135 312.219 46.4427ZM299.056 46.4427C299.056 44.4792 300.658 42.8802 302.626 42.8802C304.599 42.8802 306.196 44.4792 306.196 46.4427C306.196 48.4063 304.599 50.0052 302.626 50.0052C300.658 50.0052 299.056 48.401 299.056 46.4427Z" fill="#EADBCA"/>
<path d="M269.186 59.5676C269.186 54.2968 264.886 50.0051 259.593 50.0051C254.301 50.0051 250 54.2968 250 59.5676C250 64.8385 254.301 69.1353 259.593 69.1353C264.886 69.1353 269.186 64.8437 269.186 59.5676Z" fill="#EADBCA"/>
</g>
<defs>
<clipPath id="clip0_17_884">
<rect width="807" height="485" fill="white"/>
</clipPath>
</defs>
</svg>
